<?xml version="1.0" standalone="no"?>
<!DOCTYPE svg PUBLIC "-//W3C//DTD SVG 20010904//EN"
 "http://www.w3.org/TR/2001/REC-SVG-20010904/DTD/svg10.dtd">
<svg version="1.0" xmlns="http://www.w3.org/2000/svg"
 width="2504.000000pt" height="2519.000000pt" viewBox="0 0 2504.000000 2519.000000"
 preserveAspectRatio="xMidYMid meet">
<metadata>
Created by potrace 1.15, written by Peter Selinger 2001-2017
</metadata>
<g transform="translate(0.000000,2519.000000) scale(0.100000,-0.100000)"
fill="#000000" stroke="none">
<path d="M11900 24429 c-179 -3 -388 -11 -465 -18 -311 -26 -464 -42 -545 -55
-47 -8 -188 -29 -315 -46 -126 -17 -255 -38 -285 -45 -30 -8 -111 -23 -180
-35 -124 -21 -407 -83 -635 -140 -1015 -254 -1837 -565 -2715 -1029 -129 -68
-289 -156 -355 -194 -66 -39 -145 -84 -175 -102 -228 -131 -646 -417 -1015
-693 -878 -658 -1617 -1389 -2286 -2262 -196 -256 -475 -653 -638 -908 -85
-133 -117 -186 -229 -377 -124 -214 -345 -641 -485 -940 -302 -645 -594 -1497
-761 -2220 -73 -316 -98 -433 -121 -560 -14 -77 -34 -183 -45 -235 -10 -52
-28 -171 -39 -265 -12 -93 -28 -199 -36 -235 -17 -78 -38 -299 -65 -701 -28
-414 -28 -1059 0 -1476 26 -386 47 -611 65 -698 7 -38 26 -162 40 -275 14
-113 32 -234 40 -270 9 -36 29 -137 45 -225 87 -473 300 -1278 435 -1645 13
-36 53 -148 89 -250 141 -399 347 -871 566 -1297 208 -403 412 -755 600 -1033
162 -240 222 -326 331 -475 673 -923 1333 -1618 2193 -2309 83 -67 320 -249
392 -301 200 -144 287 -206 359 -256 44 -31 116 -81 160 -112 44 -30 125 -83
180 -117 55 -34 123 -77 150 -95 28 -18 70 -43 95 -57 25 -14 86 -49 135 -78
117 -70 436 -240 645 -345 947 -475 1974 -815 3155 -1046 221 -43 231 -45 493
-79 129 -16 250 -34 270 -39 38 -10 263 -30 636 -56 288 -21 1145 -21 1432 0
385 27 599 46 634 55 29 8 286 43 545 76 28 3 84 14 125 25 41 10 129 27 195
39 141 24 567 122 810 186 647 172 1167 353 1785 621 244 106 826 401 1088
552 96 55 119 63 142 51 13 -7 21 -5 31 7 12 15 12 16 -4 10 -12 -5 -16 -3
-11 5 5 8 1 9 -12 5 -18 -7 -18 -7 0 8 11 8 25 15 30 15 6 0 5 -4 -2 -8 -9 -6
-5 -12 13 -22 20 -11 28 -11 38 -1 9 10 8 11 -5 6 -12 -5 -20 -1 -25 11 -4 10
-2 19 4 21 6 2 23 15 38 29 14 13 48 36 73 50 91 49 312 198 632 428 1115 799
1952 1633 2761 2751 408 564 662 983 962 1585 336 675 518 1139 768 1960 17
58 47 164 65 235 18 72 40 155 48 186 25 88 115 481 146 642 17 82 34 166 40
188 6 22 12 54 14 72 9 78 68 490 81 565 16 88 47 397 66 672 17 232 24 1201
10 1370 -6 74 -16 207 -21 295 -16 237 -38 460 -55 545 -8 41 -26 167 -41 280
-14 113 -32 230 -40 260 -7 30 -22 109 -34 175 -34 197 -121 572 -218 945 -96
368 -278 921 -430 1300 -193 485 -472 1061 -718 1485 -29 50 -54 97 -56 105
-3 13 34 15 267 15 195 0 276 3 290 12 16 10 -40 12 -282 13 l-302 0 -76 123
c-611 983 -1385 1911 -2195 2631 -493 439 -1217 984 -1695 1276 -301 184 -745
426 -1046 570 l-156 75 118 3 c173 4 151 22 -26 22 l-145 0 -123 54 c-417 183
-828 339 -1217 460 -258 80 -349 106 -483 141 -73 19 -166 44 -207 55 -125 34
-555 129 -720 160 -85 16 -186 35 -225 44 -38 8 -160 26 -270 41 -110 14 -238
32 -285 40 -91 16 -331 40 -495 50 -55 3 -138 10 -185 15 -107 12 -704 17
-1130 9z m975 -489 c461 -28 1082 -97 1385 -155 488 -94 696 -140 985 -218
285 -77 433 -121 565 -166 l115 -39 -783 -1 c-816 -1 -878 2 -1043 44 -30 8
-136 26 -235 41 -98 15 -204 30 -234 35 -69 10 -382 44 -555 60 -178 17 -1324
24 -1470 10 -60 -6 -168 -16 -240 -22 -129 -10 -326 -32 -440 -48 -241 -34
-428 -64 -475 -76 -30 -8 -99 -21 -154 -30 -140 -22 -653 -137 -831 -186 -635
-175 -1055 -311 -1280 -414 -44 -20 -100 -45 -125 -55 -25 -10 -112 -47 -195
-81 -82 -34 -157 -68 -165 -75 -8 -7 -37 -21 -65 -32 -156 -63 -673 -329 -895
-462 -103 -62 -458 -293 -555 -361 -33 -24 -161 -114 -285 -202 -124 -88 -267
-194 -319 -236 -52 -42 -145 -116 -206 -166 -498 -399 -1174 -1064 -1471
-1446 -32 -42 -95 -121 -139 -175 -174 -215 -382 -493 -500 -669 -56 -83 -123
-181 -149 -218 -26 -37 -84 -124 -128 -194 -193 -305 -211 -335 -292 -493 -25
-47 -72 -137 -105 -200 -96 -181 -209 -414 -302 -625 -12 -27 -32 -72 -44
-100 -67 -146 -180 -431 -234 -587 l-60 -178 604 0 c415 0 605 3 605 10 0 39
282 658 398 875 21 39 64 120 96 180 195 368 443 768 651 1050 264 359 406
537 653 815 357 402 853 871 1238 1171 130 101 227 173 559 414 103 74 415
268 600 373 525 297 908 483 1345 651 216 83 216 83 212 107 -16 96 -23 128
-41 188 -11 38 -33 87 -47 108 -31 45 -55 126 -44 148 12 23 52 57 48 41 -2
-7 3 -16 10 -18 7 -3 12 5 12 21 0 84 326 176 496 141 37 -8 84 -25 103 -38
20 -13 46 -27 58 -31 12 -4 52 -39 89 -78 60 -64 106 -141 137 -229 5 -15 19
-13 134 18 216 59 272 72 437 103 88 17 161 32 163 34 2 2 -12 21 -31 42 -20
22 -43 58 -53 82 l-16 43 31 43 c20 27 40 77 55 137 14 52 34 121 45 154 12
33 30 96 42 140 30 114 94 245 144 293 44 43 101 65 198 77 44 6 60 3 88 -13
19 -11 60 -25 90 -32 88 -19 90 -20 115 -60 33 -53 86 -84 127 -75 35 8 78 41
78 60 0 7 9 33 20 58 41 92 130 64 130 -41 0 -108 26 -142 106 -142 79 0 105
-28 123 -133 14 -77 14 -77 -13 -115 -37 -54 -34 -77 16 -110 45 -29 108 -91
108 -105 0 -4 -13 -20 -30 -35 -32 -29 -65 -108 -50 -117 5 -3 101 -2 212 2
527 21 1241 -24 1852 -117 268 -41 663 -119 711 -140 11 -5 90 -27 175 -49
652 -170 1225 -381 1775 -651 549 -271 1077 -578 1378 -802 62 -46 144 -106
182 -133 136 -96 437 -331 559 -439 184 -161 549 -501 583 -542 21 -25 92
-101 158 -168 226 -229 497 -544 678 -787 389 -520 485 -666 772 -1175 93
-166 400 -772 410 -811 l6 -23 -208 0 -208 0 -18 31 -18 32 -4094 -5 -4095 -5
7 41 c3 23 9 48 13 56 5 8 11 35 15 60 l7 45 4029 -3 c2740 -3 4029 0 4029 7
0 5 -5 13 -10 16 -6 4 -26 37 -44 74 -19 37 -42 73 -50 80 -14 11 -695 13
-3981 9 l-3965 -5 0 21 c0 35 18 88 35 100 22 16 60 301 51 378 -7 51 -10 57
-37 67 -32 11 -54 6 -81 -17 -14 -12 -25 -13 -62 -3 -57 14 -115 14 -211 0
-66 -10 -86 -9 -143 6 -37 10 -74 23 -82 30 -8 7 -26 16 -40 20 -44 13 -170
76 -170 84 0 5 -15 11 -32 15 -31 6 -187 74 -198 86 -3 3 -30 18 -60 34 -30
16 -68 41 -85 56 -32 29 -149 100 -166 100 -5 0 -9 4 -9 9 0 10 -119 48 -191
61 -30 5 -76 15 -102 22 l-49 13 54 52 c108 103 121 143 67 202 l-31 34 19 34
c10 19 26 41 36 50 9 9 17 20 17 25 0 14 90 128 128 162 17 16 32 35 32 41 0
6 18 28 39 49 l40 39 38 -42 c21 -23 77 -82 126 -130 80 -81 86 -89 65 -95
-13 -3 -35 -6 -49 -6 -48 0 -82 -64 -55 -105 29 -44 69 -55 202 -55 l122 0 29
-34 c15 -19 72 -81 126 -137 108 -111 141 -129 242 -129 28 0 56 -5 62 -11 5
-5 35 -13 66 -16 52 -5 56 -4 73 22 l18 27 120 -6 c67 -3 148 -9 181 -15 33
-5 213 -10 400 -10 405 -1 705 -23 705 -52 0 -5 10 -9 23 -9 18 0 23 -6 25
-27 1 -16 9 -33 17 -39 8 -6 11 -14 7 -18 -4 -5 0 -7 8 -6 54 8 111 -1 129
-22 11 -11 37 -24 58 -27 31 -5 38 -11 45 -37 6 -25 20 -38 64 -60 30 -15 60
-37 66 -48 6 -11 20 -28 32 -38 20 -17 18 -17 -63 -18 -125 0 -171 -35 -171
-128 0 -76 47 -108 171 -116 176 -12 6052 -26 6063 -15 9 9 -65 151 -111 210
-34 45 -49 57 -75 60 -51 6 -4247 2 -4853 -5 l-541 -6 -17 33 c-9 17 -22 55
-28 82 -7 28 -18 62 -25 77 -8 15 -14 29 -14 33 0 10 1366 5 1376 -5 7 -7 684
-9 2013 -8 l2004 3 -40 50 c-22 28 -52 69 -68 93 l-28 42 -2676 0 -2675 -1
-19 38 c-11 21 -23 40 -27 43 -4 3 -24 48 -44 100 -21 52 -42 103 -47 112 -9
17 119 18 2613 18 1441 0 2623 2 2626 5 7 7 -20 44 -79 108 l-54 58 -3095 -1
-3095 0 -100 31 c-55 16 -118 35 -140 42 -52 16 -406 17 -426 1 -24 -19 -111
-35 -153 -29 -49 7 -136 46 -136 60 -1 11 -63 45 -84 45 -8 0 -21 11 -30 25
l-16 25 3560 0 c2195 0 3560 4 3560 9 0 5 -9 12 -19 16 -10 3 -53 45 -94 94
-71 83 -78 89 -124 96 -26 4 -1620 6 -3542 4 l-3494 -4 -23 50 c-13 28 -23 56
-24 63 0 6 -5 12 -11 12 -5 0 -7 5 -4 10 3 6 2 10 -3 10 -5 0 -12 11 -14 25
l-5 25 3486 0 3486 0 -151 150 -150 150 -125 0 c-1216 4 -6424 -1 -6533 -6
-143 -6 -149 -6 -141 12 4 11 16 42 26 69 11 28 24 61 29 75 l10 25 3283 -2
c3125 -3 3281 -2 3257 15 -13 9 -69 55 -125 101 l-100 83 -3147 -5 -3147 -4
-5 26 c-3 14 -8 43 -12 63 l-6 38 3087 2 3088 3 -153 120 c-85 66 -168 130
-186 143 l-33 22 -2980 0 c-2775 0 -2981 1 -2989 17 -7 11 -4 27 9 50 35 61
21 101 -51 153 -27 19 -53 47 -58 61 -5 14 -18 33 -27 43 -13 13 -15 20 -6 29
16 16 14 37 -6 61 -10 12 -14 18 -10 14 5 -3 22 -2 38 2 24 7 29 6 29 -10 0
-10 8 -22 18 -26 9 -5 1246 -10 2747 -11 l2730 -3 -75 45 -75 45 -2645 0
-2645 0 85 56 c47 31 109 67 138 80 l53 24 31 -23 c23 -17 50 -24 121 -29 146
-11 4714 -22 4702 -11 -5 5 -35 20 -65 33 -30 12 -84 42 -120 65 -71 47 -110
69 -244 139 l-89 46 -1979 -2 c-1088 -2 -1973 -1 -1966 1 7 2 21 13 33 23 11
11 40 32 65 46 25 15 79 60 120 101 l74 74 1590 -7 c875 -3 1588 -5 1585 -2
-6 5 -433 177 -537 215 l-84 31 -1368 0 c-1154 0 -1371 2 -1382 14 -8 8 -37
25 -64 39 l-49 26 1285 1 c865 0 1281 3 1274 10 -6 6 -39 19 -75 29 -35 10
-102 32 -149 47 l-85 29 -1264 2 c-695 0 -1283 4 -1307 8 -24 3 -46 10 -49 14
-2 5 -22 11 -42 15 -21 3 -67 19 -101 36 -35 16 -70 30 -77 30 -7 0 -15 7 -19
15 -3 8 -12 15 -21 15 -22 0 -138 39 -150 51 -5 5 -28 9 -51 9 -40 0 -107 30
-163 72 -13 10 -32 18 -43 18 -11 0 -16 4 -13 10 3 5 1 18 -5 29 -7 15 -7 22
3 28 28 17 37 47 19 66 -11 12 -13 20 -5 25 5 4 13 17 17 30 4 12 12 22 18 22
7 0 7 -4 1 -12 -13 -17 -23 -68 -13 -68 22 0 47 74 29 85 -21 13 20 139 49
150 28 11 117 -75 140 -135 13 -34 1 -62 -49 -110 -39 -37 -40 -40 -17 -40 30
0 85 49 103 92 29 70 -4 136 -127 260 -27 27 -48 50 -48 52 0 1 17 11 39 20
36 17 40 17 71 1 30 -16 36 -16 74 -1 22 9 52 25 66 36 24 19 24 20 4 20 -25
0 -39 14 -49 50 -4 14 -20 36 -35 50 -43 37 -47 70 -14 109 24 29 27 40 25 92
-3 79 -12 102 -42 104 -25 2 -59 -28 -59 -52 0 -7 -10 -13 -21 -13 -18 0 -19
2 -9 15 9 10 9 15 1 15 -6 0 -11 9 -11 20 0 11 -4 20 -10 20 -5 0 -10 -9 -10
-20 0 -11 -4 -20 -9 -20 -15 0 -40 76 -47 137 -9 90 -25 154 -38 150 -7 -2
-10 -24 -8 -58 3 -53 3 -54 -28 -66 l-31 -12 21 -41 c20 -39 50 -167 50 -211
0 -10 -7 -19 -15 -19 -8 0 -15 8 -15 17 0 23 -23 83 -31 83 -4 0 -9 -15 -11
-32 -4 -42 -17 -41 -46 3 -13 19 -28 33 -33 32 -14 -4 -11 45 5 76 8 15 22 34
32 42 16 13 17 12 10 -14 -5 -22 -4 -28 6 -25 7 3 14 21 16 42 3 35 2 37 -20
31 -35 -11 -66 -33 -84 -61 -10 -14 -23 -23 -30 -20 -8 3 -14 1 -14 -4 0 -6 5
-10 11 -10 5 0 7 -5 4 -10 -8 -14 -45 6 -45 24 0 8 -7 13 -16 12 -9 0 -19 5
-21 12 -3 8 7 12 32 12 48 0 37 16 -17 24 -51 8 -116 43 -123 66 -3 10 -15 22
-28 29 -18 9 -9 11 50 8 53 -2 69 0 62 9 -25 31 -293 47 -351 21 -41 -18 -127
-106 -134 -136 -3 -14 -15 -45 -26 -69 -13 -27 -18 -53 -15 -72 5 -20 -3 -48
-28 -98 -18 -38 -37 -87 -41 -108 -4 -22 -13 -52 -21 -67 -12 -25 -12 -30 7
-56 24 -35 25 -40 3 -57 -15 -11 -15 -15 -5 -22 14 -9 3 -30 -54 -110 -16 -21
-16 -24 1 -42 10 -11 26 -22 36 -25 14 -5 19 -15 17 -35 -1 -16 6 -37 16 -49
11 -12 15 -27 11 -40 -3 -12 1 -30 10 -45 10 -15 14 -33 10 -46 -17 -52 27
-99 92 -100 25 -1 24 -3 -21 -26 -57 -30 -102 -76 -116 -119 -5 -16 -14 -84
-19 -150 -5 -66 -15 -162 -22 -212 -12 -92 -12 -93 -40 -93 -15 0 -30 4 -33 8
-3 5 -20 9 -37 10 -36 1 -123 19 -154 32 -11 4 -60 15 -110 25 -49 9 -121 29
-160 46 -38 16 -76 29 -84 29 -26 0 -136 68 -157 97 -31 42 -39 102 -20 157
22 64 20 162 -5 259 -25 99 -39 127 -96 194 -43 52 -123 113 -146 113 -7 0
-18 9 -24 19 -17 27 -83 48 -93 30 -7 -10 -16 -10 -48 0 -25 9 -51 11 -69 6
-15 -4 -54 -8 -85 -9 -45 -1 -61 -6 -78 -23 -21 -24 -31 -26 -87 -25 -27 1
-33 -2 -33 -18 0 -11 -6 -20 -12 -20 -16 -1 -78 -84 -78 -103 0 -8 23 -38 50
-67 49 -51 50 -54 50 -114 0 -47 7 -74 29 -118 l29 -56 -34 -71 c-19 -40 -34
-78 -34 -87 0 -9 13 -21 30 -27 22 -8 30 -18 32 -42 2 -20 11 -33 26 -40 16
-7 22 -18 22 -41 0 -18 8 -38 19 -48 10 -10 22 -33 25 -52 4 -20 13 -34 21
-34 20 0 19 -10 -4 -34 -18 -20 -41 -90 -56 -171 -4 -22 -7 -97 -6 -167 1
-111 -1 -132 -19 -165 -11 -21 -20 -46 -20 -55 0 -10 -9 -33 -20 -53 -11 -20
-20 -42 -20 -50 0 -31 -21 -18 -83 53 -42 48 -46 54 -36 80 14 34 3 185 -16
227 -7 17 -16 59 -20 95 -9 86 -18 102 -58 98 -42 -4 -59 -37 -53 -103 2 -27
7 -58 11 -68 6 -13 3 -16 -8 -11 -21 8 -53 63 -62 105 -4 19 -12 40 -17 47 -7
8 -6 17 3 28 11 14 10 18 -6 30 -26 19 -48 18 -77 -6 -29 -22 -42 -69 -28
-104 7 -21 5 -25 -14 -30 -28 -7 -37 -35 -29 -93 4 -31 2 -48 -9 -61 -20 -22
-31 -123 -18 -157 14 -38 98 -133 132 -151 15 -8 28 -21 28 -29 0 -8 17 -32
38 -53 21 -22 46 -54 56 -73 58 -113 148 -225 219 -270 26 -17 47 -35 47 -39
0 -4 11 -11 25 -14 14 -4 48 -20 76 -37 42 -27 56 -30 91 -25 44 7 92 29 122
55 24 21 56 85 56 111 0 12 5 18 10 15 6 -3 10 -35 10 -69 0 -63 29 -171 70
-261 41 -90 60 -138 60 -150 0 -8 14 -53 31 -102 40 -114 59 -209 62 -307 2
-77 1 -80 -23 -86 -28 -7 -41 -40 -16 -40 24 0 8 -29 -26 -46 -16 -8 -37 -22
-46 -30 -9 -8 -62 -48 -117 -88 -56 -41 -118 -93 -139 -117 -37 -43 -38 -43
-105 -44 -68 -2 -96 -13 -147 -60 -12 -11 -32 -27 -44 -36 -19 -12 -21 -20
-14 -41 11 -30 54 -87 107 -141 40 -41 46 -67 20 -88 -22 -19 -93 -116 -93
-128 0 -5 -7 -11 -14 -14 -8 -3 -20 -23 -25 -44 -6 -21 -26 -54 -45 -74 -61
-64 -69 -97 -55 -222 7 -64 9 -149 5 -205 -8 -133 -24 -309 -36 -417 -5 -49
-14 -180 -20 -290 -6 -110 -15 -201 -21 -203 -5 -2 -9 -17 -9 -32 0 -16 -4
-32 -10 -35 -5 -3 -10 -17 -10 -30 0 -13 -4 -34 -9 -47 -5 -13 -15 -42 -21
-65 -10 -33 -19 -43 -41 -48 -15 -4 -33 -13 -40 -21 -19 -23 -37 -16 -64 26
-25 39 -66 67 -73 49 -3 -8 36 -69 53 -81 21 -15 -6 -19 -55 -9 -68 15 -90 14
-90 -3 0 -10 22 -18 70 -26 38 -6 72 -15 74 -19 11 -17 -29 -39 -114 -63 -19
-5 -48 -14 -65 -19 -16 -6 -50 -12 -75 -14 -30 -3 -49 -11 -60 -25 -14 -19
-22 -21 -66 -15 -27 4 -58 14 -69 21 -30 22 -58 17 -106 -18 -89 -64 -91 -90
-11 -166 31 -30 56 -58 55 -62 -1 -4 14 -11 33 -15 19 -3 43 -14 53 -24 10
-10 26 -20 37 -24 78 -24 220 -80 222 -87 4 -11 14282 -14 14282 -4 0 34 -193
553 -235 634 -14 26 -25 53 -69 158 -103 246 -403 851 -512 1032 -22 36 -45
78 -52 94 -16 35 -143 229 -404 616 -265 394 -625 853 -984 1256 -110 124
-603 613 -729 723 -208 182 -438 373 -654 542 -140 109 -645 468 -823 583 -84
55 -189 123 -233 151 -84 55 -101 65 -305 175 -69 37 -150 81 -180 97 -164 89
-483 241 -540 258 -14 4 -37 16 -52 26 -14 11 -32 19 -39 19 -7 0 -31 11 -53
24 -23 13 -91 44 -151 69 -61 25 -150 63 -200 84 -148 66 -182 79 -530 198
-285 98 -943 276 -1260 341 l-140 29 767 3 768 2 87 -29 c324 -107 787 -300
1191 -496 234 -114 553 -282 620 -327 24 -15 62 -38 85 -50 43 -21 181 -104
297 -177 36 -22 94 -59 130 -80 36 -22 103 -67 150 -100 47 -33 137 -96 200
-140 114 -79 301 -214 416 -300 32 -25 135 -106 228 -180 93 -75 183 -147 200
-161 122 -97 448 -393 639 -580 209 -205 226 -224 212 -240 -22 -25 -19 -30
21 -30 46 0 85 -40 432 -446 71 -83 194 -232 273 -331 153 -191 172 -216 276
-358 37 -49 82 -110 100 -135 19 -24 31 -50 29 -57 -3 -7 0 -13 7 -13 13 -1
18 -7 142 -188 85 -123 113 -168 237 -368 116 -190 137 -225 244 -419 155
-279 514 -1014 514 -1051 0 -3 11 -29 24 -57 28 -59 84 -196 126 -308 20 -53
26 -79 18 -87 -11 -11 -1 -35 12 -27 25 15 243 -655 359 -1106 59 -229 143
-605 166 -739 9 -52 24 -138 35 -190 47 -233 116 -821 147 -1260 35 -491 22
-1218 -33 -1770 -21 -213 -91 -749 -110 -835 -8 -38 -19 -97 -25 -130 -58
-360 -197 -922 -339 -1375 -154 -489 -369 -1042 -543 -1395 -14 -27 -46 -95
-72 -150 -80 -169 -347 -666 -432 -805 -62 -100 -167 -271 -208 -336 -22 -35
-80 -123 -130 -195 -49 -73 -106 -155 -125 -183 -124 -182 -396 -534 -600
-776 -387 -461 -581 -666 -1032 -1088 -43 -41 -64 -54 -91 -55 -20 -1 -32 -6
-29 -12 3 -5 -1 -4 -10 3 -12 9 -18 10 -23 2 -8 -13 -7 -13 18 -27 17 -9 14
-14 -30 -55 -26 -25 -64 -59 -83 -74 -19 -16 -66 -56 -105 -89 -103 -90 -301
-246 -497 -392 -192 -144 -650 -466 -715 -504 -42 -24 -267 -162 -333 -204
-205 -130 -835 -455 -1150 -592 -161 -71 -359 -153 -366 -153 -4 0 -31 -12
-61 -26 -91 -42 -790 -283 -988 -339 -114 -32 -644 -165 -795 -199 -328 -74
-975 -173 -1345 -205 -435 -38 -592 -45 -1055 -45 -759 0 -1306 49 -2090 189
-263 46 -786 170 -1105 260 -183 52 -850 280 -965 330 -30 13 -118 49 -195 81
-251 102 -366 154 -680 309 -271 134 -618 321 -725 390 -19 12 -93 58 -163
101 -154 94 -245 152 -283 179 -663 460 -932 667 -1358 1045 -319 283 -702
669 -926 934 -41 48 -119 141 -174 205 -139 164 -305 372 -427 536 -57 77
-114 154 -127 170 -90 119 -376 550 -467 705 -21 36 -55 92 -75 125 -21 33
-51 85 -67 115 -17 30 -69 126 -116 212 -337 614 -587 1190 -806 1858 -123
376 -134 414 -226 780 -112 447 -142 592 -211 1020 -110 686 -171 1680 -134
2204 5 77 17 249 25 381 9 132 25 319 36 415 11 96 24 247 29 335 9 159 17
206 91 530 16 72 48 213 70 314 99 458 198 816 338 1231 89 265 175 504 204
570 9 19 41 96 73 170 31 74 79 187 106 250 53 122 294 614 351 715 18 33 66
121 107 195 137 251 254 443 459 748 64 96 122 183 130 195 16 23 117 161 267
362 135 181 453 566 668 809 235 265 747 753 1092 1042 169 141 525 415 685
527 30 21 134 93 231 162 97 68 179 121 182 117 3 -3 6 -1 6 5 0 6 30 29 68
52 37 23 96 60 132 82 108 68 252 155 305 183 28 15 118 65 200 112 164 93
662 342 845 422 593 258 1069 425 1690 593 279 75 463 116 950 209 376 72
1044 144 1585 170 211 10 727 5 970 -10z m-647 -2648 c-7 -11 -35 -38 -62 -61
-27 -24 -56 -51 -65 -61 -23 -25 -179 -139 -223 -161 -20 -10 -57 -32 -81 -49
-44 -30 -100 -40 -112 -20 -3 5 1 23 10 39 10 20 15 58 15 110 0 44 5 112 12
151 l12 70 254 0 c244 0 253 -1 240 -18z m-1653 -711 c5 -4 31 -14 58 -21 39
-10 47 -17 47 -36 0 -13 5 -35 12 -49 9 -20 8 -31 -2 -51 -9 -15 -10 -28 -5
-32 6 -4 19 -20 31 -37 16 -24 20 -47 22 -112 0 -46 6 -102 13 -125 6 -24 10
-68 9 -98 -1 -30 -3 -80 -4 -110 -1 -30 -14 -90 -29 -132 -28 -78 -27 -107 2
-109 33 -3 47 4 72 32 14 16 28 29 30 29 3 0 3 -15 1 -34 -4 -35 0 -41 68 -99
14 -12 17 -25 14 -55 -3 -21 0 -52 6 -67 9 -25 14 -27 45 -22 37 6 44 -2 22
-25 -7 -7 -30 -51 -51 -98 -21 -47 -47 -94 -57 -106 -10 -11 -19 -24 -19 -28
0 -8 -89 -191 -110 -226 -15 -26 -50 -109 -50 -120 0 -5 -9 -14 -19 -20 -12
-6 -21 -23 -23 -43 -3 -34 -16 -42 -29 -17 -32 57 -61 152 -60 195 0 6 1 38 2
72 1 34 -4 76 -11 92 -7 17 -10 41 -7 53 22 94 45 223 41 230 -10 16 14 7 31
-12 10 -11 22 -17 26 -14 15 9 10 39 -16 90 -19 37 -25 65 -25 112 0 67 -21
132 -42 132 -7 1 -21 11 -30 23 -76 97 -89 122 -109 199 -19 72 -20 90 -10
152 12 79 26 307 30 483 l1 72 57 -30 c32 -17 62 -34 68 -38z m-647 -2161 c17
-28 36 -50 40 -50 5 0 30 -27 55 -60 26 -33 54 -68 62 -77 29 -34 100 -122
140 -174 22 -28 45 -57 50 -63 6 -6 30 -45 54 -86 25 -41 49 -78 54 -82 14 -9
12 -64 -5 -128 -20 -71 -44 -182 -64 -295 -8 -49 -22 -121 -29 -160 -8 -38
-19 -99 -25 -135 -21 -126 -49 -241 -65 -262 -8 -13 -15 -33 -15 -45 0 -29
-61 -124 -97 -153 -19 -15 -35 -19 -52 -15 -33 8 -169 27 -200 27 -27 0 -43
-19 -37 -45 3 -11 0 -17 -7 -14 -7 2 -25 0 -42 -4 -27 -8 -92 6 -105 22 -3 3
-27 18 -55 33 -107 56 -200 14 -166 -77 7 -17 7 -28 1 -32 -15 -9 -12 -47 3
-42 6 2 11 13 9 23 -2 14 3 12 22 -11 14 -16 25 -33 26 -37 0 -11 -94 -17
-323 -21 -200 -3 -219 -2 -228 14 -5 10 -9 28 -9 40 0 12 -8 27 -17 34 -15 11
-15 19 7 109 12 53 27 96 31 96 5 0 16 25 24 55 9 30 21 57 26 60 5 4 9 22 9
41 0 19 4 34 8 34 4 0 14 21 21 48 39 135 75 246 81 252 3 3 13 37 23 75 20
74 65 197 77 205 7 5 30 104 35 155 2 17 3 104 3 195 -1 91 -1 187 -1 214 0
45 4 52 44 88 24 22 78 56 119 75 41 20 91 49 109 66 19 16 55 38 80 49 26 10
60 25 76 32 56 25 187 70 215 75 3 0 20 -22 38 -49z m982 -810 c0 -5 6 -10 13
-10 19 0 271 -83 277 -92 6 -8 84 -38 115 -43 117 -20 151 -27 166 -35 10 -6
28 -10 41 -10 13 0 28 -4 34 -10 5 -5 49 -16 97 -23 49 -8 94 -20 100 -26 6
-6 19 -11 29 -11 18 0 78 -26 88 -39 3 -3 30 -18 60 -34 30 -15 66 -36 80 -47
25 -19 25 -19 7 -48 -35 -60 -10 -112 55 -112 25 0 28 -4 28 -33 0 -21 11 -49
32 -78 38 -51 49 -60 65 -54 7 2 15 -5 18 -15 3 -10 15 -22 26 -25 14 -5 19
-15 19 -41 0 -19 3 -34 8 -34 15 0 62 -88 62 -117 l0 -30 -110 -9 c-95 -9
-112 -13 -130 -34 -19 -22 -24 -23 -102 -16 -46 4 -117 10 -158 15 -103 12
-760 2 -805 -12 -11 -4 -128 -13 -260 -22 -132 -8 -257 -18 -279 -21 -34 -6
-38 -5 -33 12 3 10 11 39 17 64 7 25 17 52 24 60 7 8 27 53 46 100 18 47 39
92 45 100 7 8 20 33 30 55 10 22 41 90 70 150 29 61 63 137 76 170 13 33 28
63 32 66 5 3 8 8 7 10 -1 2 3 16 8 30 6 14 20 72 32 130 13 57 24 110 26 117
4 14 44 17 44 2z"/>
<path d="M14530 17290 c-148 -10 -197 -52 -97 -83 50 -16 271 -17 3065 -17
l3012 0 -34 53 -34 52 -2913 0 c-1603 0 -2952 -2 -2999 -5z"/>
<path d="M2229 15653 l-446 -3 -7 -66 c-4 -35 -4 -69 -1 -74 4 -6 5 -133 4
-282 -3 -350 -1 -607 6 -618 3 -5 1 -19 -4 -32 -5 -15 -5 -31 0 -41 14 -24 20
-100 9 -107 -5 -3 -10 -59 -11 -124 -1 -91 1 -120 12 -127 10 -6 10 -9 2 -9
-15 0 -14 -161 0 -171 15 -10 14 -119 0 -119 -8 0 -13 -13 -13 -30 0 -22 5
-30 18 -30 9 0 24 -5 32 -10 11 -7 6 -8 -17 -4 l-33 7 0 -46 c0 -32 4 -46 15
-49 13 -3 13 -6 0 -32 -19 -35 -21 -146 -2 -146 8 0 7 -3 -3 -10 -23 -14 -7
-21 46 -20 27 0 57 0 67 0 29 -2 88 -2 184 0 51 1 97 -1 101 -4 13 -8 32 9 38
35 8 30 7 46 -2 83 -5 21 -4 27 5 21 20 -12 29 -48 18 -73 -8 -17 -7 -26 3
-35 10 -9 13 -9 17 1 3 6 9 12 14 12 4 0 6 -7 3 -15 -7 -18 17 -20 34 -3 9 9
12 9 12 0 0 -7 6 -12 14 -12 8 0 16 -6 19 -12 3 -10 8 -10 17 -2 6 7 28 10 48
7 34 -4 39 -2 56 29 33 55 45 64 61 42 8 -11 15 -25 15 -31 0 -28 60 -10 60
18 0 21 -20 25 -37 8 -9 -9 -11 -8 -9 2 5 25 25 64 25 52 1 -19 28 -16 39 4 9
14 11 14 28 -5 10 -12 24 -22 31 -22 6 0 14 -4 17 -9 3 -4 -15 -3 -39 2 -25 6
-47 8 -49 6 -2 -2 -1 -24 3 -49 4 -33 11 -46 25 -48 10 -2 22 2 27 10 7 10 12
11 29 1 11 -7 24 -13 29 -13 13 0 22 43 9 51 -6 4 -7 12 -3 18 11 19 35 -20
28 -46 -4 -19 -1 -23 17 -23 12 0 30 5 41 10 14 8 26 7 46 -3 19 -10 36 -12
51 -6 14 5 53 5 94 -1 59 -9 74 -8 88 5 11 10 20 11 26 5 6 -6 60 -11 120 -12
177 -2 211 1 229 18 14 15 17 15 28 1 20 -24 53 -26 206 -11 141 14 245 36
257 55 3 5 15 9 27 9 25 0 117 55 117 70 0 6 4 9 8 8 9 -3 72 65 72 77 0 4 9
18 20 32 11 14 20 34 20 44 0 10 10 37 22 60 20 39 22 57 22 238 1 176 -1 203
-21 267 -29 92 -76 161 -135 201 -26 17 -53 33 -60 35 -8 3 3 23 29 54 87 104
123 224 123 403 0 201 -40 323 -139 422 -69 68 -160 114 -284 141 -85 19 -130
21 -607 22 -283 1 -716 1 -961 -1z m1253 -589 c35 -18 48 -43 48 -91 0 -59 -9
-78 -43 -99 -29 -17 -57 -19 -281 -21 -157 -2 -253 -7 -261 -13 -9 -8 -14 -7
-17 1 -3 9 -60 12 -229 10 -188 -2 -227 0 -244 13 -11 9 -14 16 -7 16 9 0 12
27 12 99 l0 98 498 0 c402 0 502 -2 524 -13z m-198 -738 l248 -4 29 -28 c23
-22 29 -36 29 -70 0 -56 -13 -89 -44 -109 -21 -14 -59 -16 -265 -16 -171 1
-248 -2 -267 -11 -22 -10 -28 -10 -32 0 -2 6 -13 12 -24 12 -17 0 -20 -5 -16
-30 3 -16 1 -30 -4 -30 -4 0 -8 -7 -8 -15 0 -8 -4 -15 -10 -15 -5 0 -10 11
-10 24 0 14 5 28 10 31 6 3 10 13 10 20 0 20 -251 17 -258 -2 -2 -7 3 -13 12
-13 18 0 21 -15 6 -25 -6 -4 -8 -11 -5 -16 4 -5 -3 -9 -13 -9 -15 0 -21 9 -26
34 -9 50 -66 68 -66 21 0 -14 -4 -25 -9 -25 -4 0 -6 11 -3 25 4 23 1 25 -31
25 -19 0 -37 -6 -40 -12 -3 -10 -7 -10 -17 -1 -14 13 -23 213 -11 230 3 4 26
9 51 10 25 0 66 5 92 10 31 6 51 6 57 0 6 -6 76 -10 168 -10 134 1 159 3 168
17 9 14 11 15 21 1 9 -12 53 -16 258 -19z"/>
<path d="M5290 15653 c-113 -3 -322 -21 -390 -35 -30 -5 -79 -21 -108 -34 -29
-13 -55 -24 -59 -24 -8 0 -92 -69 -126 -105 -50 -51 -79 -94 -72 -105 3 -5 1
-10 -4 -10 -6 0 -11 -6 -11 -14 0 -8 -4 -16 -10 -18 -33 -11 -62 -324 -33
-354 14 -13 14 -17 1 -32 -13 -14 -15 -53 -13 -220 1 -111 4 -205 7 -208 4 -3
2 -20 -3 -37 -9 -33 8 -147 23 -147 4 0 5 -7 2 -15 -4 -8 -12 -15 -20 -15 -14
0 -15 -25 0 -48 4 -7 3 -19 -3 -26 -7 -8 -9 -46 -6 -105 3 -51 6 -109 7 -129
1 -73 37 -182 59 -182 6 0 8 -4 5 -9 -8 -12 51 -101 66 -101 7 0 18 -10 23
-22 6 -13 20 -24 33 -26 12 -2 22 -10 22 -18 0 -17 22 -18 38 -2 9 9 12 6 12
-15 0 -23 7 -31 48 -48 26 -11 68 -24 93 -29 25 -5 52 -10 59 -12 8 -2 17 9
21 27 l7 30 1 -32 c1 -35 10 -40 43 -22 17 9 24 8 32 -3 15 -20 84 -27 322
-33 166 -5 192 -4 197 10 8 20 27 19 27 -1 0 -13 33 -15 288 -14 386 2 641 15
765 40 98 20 227 71 227 91 0 5 6 9 14 9 23 0 125 121 156 185 16 33 34 89 39
125 6 37 11 320 11 660 1 634 1 639 -49 750 -39 89 -143 190 -248 243 -100 51
-172 62 -507 77 -239 11 -767 7 -808 -6 -10 -3 -18 -1 -18 5 0 6 -17 9 -37 8
-21 -1 -76 -3 -123 -4z m1078 -618 c37 -5 55 -12 62 -26 7 -12 10 -171 10
-441 0 -411 -1 -423 -20 -443 -20 -19 -33 -20 -323 -20 -166 -1 -410 -2 -542
-4 -132 -2 -244 -2 -250 -1 -5 1 -33 2 -60 0 -28 -1 -69 6 -90 14 l-40 16 -1
98 c0 53 -1 120 -2 147 0 28 2 179 4 338 l5 287 27 18 c21 14 57 18 197 22
216 6 953 2 1023 -5z"/>
<path d="M10825 15649 c-154 -3 -531 -4 -839 -1 l-559 5 7 -514 c4 -335 10
-515 17 -517 6 -3 6 -8 1 -15 -5 -7 -12 -45 -16 -84 -5 -63 -4 -73 10 -73 13
0 13 -2 2 -14 -11 -11 -14 -52 -11 -201 1 -104 5 -190 8 -193 3 -3 0 -11 -6
-18 -5 -7 -6 -15 -1 -18 5 -3 6 -25 3 -48 -4 -24 -5 -83 -3 -133 2 -49 3 -134
2 -187 -1 -79 2 -98 13 -98 8 0 17 9 20 21 3 12 10 18 16 14 6 -3 11 -2 11 3
0 5 6 9 13 9 6 0 20 4 30 8 10 4 17 3 17 -4 0 -16 25 -14 39 3 6 8 25 16 41
18 24 4 30 1 30 -14 0 -21 -20 -24 -39 -5 -10 10 -16 8 -31 -10 -10 -13 -28
-23 -40 -23 -30 0 -60 -18 -60 -35 0 -8 7 -15 15 -15 8 0 15 5 15 10 0 6 4 10
10 10 5 0 7 -7 4 -15 -5 -12 3 -15 40 -15 45 0 55 7 37 26 -6 5 2 10 22 11 26
2 29 0 15 -8 -24 -14 -23 -29 3 -29 18 0 21 5 17 35 -3 27 -1 32 9 23 10 -8
17 -8 26 2 9 10 9 13 0 17 -8 3 -10 15 -6 35 4 20 1 33 -8 39 -10 6 -10 9 -1
9 7 0 12 13 12 29 0 17 6 31 16 35 12 5 15 2 10 -10 -20 -51 -18 -64 8 -74 27
-10 27 -40 0 -40 -22 0 -16 -24 11 -50 14 -13 25 -29 25 -37 0 -7 7 -13 16
-13 11 0 15 6 11 20 -3 11 -1 20 4 20 5 0 9 -9 9 -19 0 -23 52 -32 122 -19 28
5 55 5 64 0 18 -10 110 2 129 18 9 7 16 6 24 -3 14 -17 211 -24 211 -7 0 5 11
10 25 10 14 0 25 -4 25 -10 0 -5 11 -10 25 -10 14 0 25 4 25 8 0 11 48 13 55
2 9 -15 302 -12 308 3 4 9 6 9 6 0 1 -10 46 -13 190 -13 181 0 191 1 204 21
l15 21 7 -21 c6 -19 14 -21 95 -21 104 0 225 15 290 37 96 32 208 92 231 125
13 18 33 44 46 57 32 33 70 117 90 198 14 59 17 144 19 633 2 633 -1 672 -60
797 -65 137 -186 231 -352 273 -64 17 -434 45 -493 38 -9 -1 -142 -5 -296 -9z
m282 -611 c217 -1 258 -6 275 -32 4 -6 8 -206 8 -443 l0 -433 -24 -16 c-22
-14 -81 -15 -500 -15 -413 0 -476 -2 -476 -14 0 -8 -7 -15 -15 -15 -8 0 -15 7
-15 16 0 13 -17 15 -117 13 -152 -2 -143 -5 -143 35 0 19 -6 37 -12 40 -10 5
-10 7 0 12 6 3 12 19 12 36 0 23 -4 29 -15 24 -8 -3 -15 -1 -15 4 0 6 7 10 16
10 11 0 15 9 14 33 -1 17 -2 193 -1 389 l1 358 373 2 c204 2 380 2 389 0 10
-2 120 -4 245 -4z"/>
<path d="M7261 14575 l1 -1075 57 -2 c31 -1 70 -2 86 -1 17 0 218 1 448 2
l417 2 1 27 c0 24 1 25 8 7 5 -11 7 -23 4 -27 -2 -5 23 -8 56 -8 56 0 61 2 62
23 0 21 1 21 9 1 7 -18 18 -20 90 -23 73 -2 81 0 80 16 -4 33 0 43 16 43 12 0
14 -7 9 -30 l-7 -30 114 3 113 2 0 31 c0 21 4 30 12 27 7 -3 10 -9 7 -15 -12
-19 28 -48 68 -48 34 0 38 3 38 26 0 16 5 24 13 21 6 -2 11 -14 10 -26 -3 -19
2 -21 47 -21 27 0 61 5 75 12 19 9 30 8 49 -1 16 -9 36 -10 65 -4 l43 8 3 83
c2 58 0 82 -8 82 -9 0 -9 2 0 8 18 11 12 97 -7 97 -9 0 -14 -8 -13 -19 1 -13
-2 -15 -10 -7 -11 11 7 41 27 41 6 0 11 17 11 39 1 35 -2 40 -28 45 -37 7 -34
41 3 41 24 0 25 2 26 75 1 120 21 109 -207 108 -196 0 -199 -1 -200 -22 l0
-21 -11 22 c-9 18 -19 21 -64 21 -30 0 -54 -5 -54 -11 0 -5 -6 -4 -14 2 -25
21 -69 9 -77 -19 l-6 -25 -8 28 -7 27 -104 0 c-76 0 -104 -3 -104 -12 0 -10
-2 -10 -9 0 -4 7 -23 12 -42 12 -19 -1 -112 -1 -206 -1 l-173 1 0 94 c0 66 -4
96 -12 100 -10 5 -10 7 0 12 9 4 12 148 12 670 l0 664 -355 0 -355 0 1 -1075z"/>
<path d="M15419 15018 c-1 -666 0 -1378 0 -1463 l1 -51 145 -2 c91 -1 145 2
145 8 0 6 9 10 20 10 11 0 20 -3 20 -8 0 -4 94 -7 209 -7 191 0 211 2 230 19
12 11 21 26 21 34 0 10 7 12 25 8 20 -5 25 -3 25 11 0 13 7 8 23 -14 28 -41
41 -37 43 10 1 46 5 51 30 32 16 -13 16 -14 2 -9 -15 5 -18 0 -18 -32 0 -22 5
-46 10 -54 8 -13 14 -13 42 3 21 12 34 15 36 8 5 -16 32 -13 32 3 0 15 24 28
34 19 3 -4 6 -15 6 -26 0 -13 5 -17 16 -13 9 3 20 6 25 6 5 0 9 9 9 20 0 11 4
20 10 20 5 0 7 -7 4 -15 -5 -11 1 -15 19 -15 14 0 27 -6 30 -12 3 -10 7 -10
17 -1 8 8 20 9 36 3 16 -7 27 -5 36 4 29 29 138 30 138 1 0 -20 62 -16 83 6
22 24 33 24 39 1 7 -27 80 -27 97 0 12 19 11 20 -27 14 -37 -5 -40 -3 -45 22
-3 16 0 33 9 42 12 12 14 11 14 -8 0 -28 18 -36 52 -23 30 11 43 4 26 -16 -9
-11 -7 -15 10 -20 12 -3 22 -11 22 -19 0 -9 16 -12 63 -10 58 2 62 4 62 27 0
13 4 30 8 37 5 6 6 16 2 21 -3 5 -1 12 4 15 5 4 12 2 16 -4 10 -17 22 -11 28
12 4 13 0 29 -9 39 -14 15 -10 49 6 49 4 0 13 -7 21 -16 7 -8 21 -13 31 -11
24 7 23 -1 -3 -24 -18 -15 -19 -21 -9 -34 7 -8 10 -21 7 -28 -3 -8 -2 -18 1
-23 9 -12 49 -34 62 -34 16 0 12 27 -5 34 -25 9 -35 48 -19 73 18 29 18 29 -8
53 -12 11 -16 20 -9 20 8 0 10 7 6 20 -4 11 -2 20 4 20 6 0 11 9 11 19 0 26
-29 36 -45 15 -16 -23 -55 -10 -54 19 l0 22 9 -22 c11 -27 33 -31 28 -5 -2 9
6 27 18 38 21 20 29 74 12 74 -14 0 -8 18 7 23 10 4 16 -5 23 -36 5 -23 5 -47
1 -52 -10 -13 13 -85 26 -85 25 0 54 32 53 58 0 15 3 37 7 50 7 21 5 22 -19
16 -19 -5 -26 -2 -26 9 0 10 7 13 20 10 22 -6 22 -5 11 55 -8 38 -7 42 10 37
12 -4 22 1 30 16 11 22 12 22 25 4 13 -18 15 -17 39 11 27 31 29 41 17 62 -9
14 -181 14 -219 1 -13 -5 -23 -5 -23 -1 0 12 -114 10 -122 -2 -6 -8 -8 -7 -8
2 0 6 -9 12 -19 12 -11 0 -22 -6 -24 -12 -4 -10 -8 -10 -14 -2 -12 17 -63 14
-63 -3 0 -13 -3 -13 -15 -3 -17 14 -136 24 -172 15 -13 -3 -23 -12 -23 -20 0
-8 -4 -15 -10 -15 -5 0 -10 9 -10 19 0 17 -7 19 -54 18 -30 -1 -58 -5 -61 -9
-4 -4 -15 -3 -24 1 -18 10 -250 13 -265 3 -6 -3 -22 -7 -35 -8 -14 -2 -27 -8
-29 -14 -6 -16 -22 -12 -22 6 0 11 -6 15 -20 11 -11 -3 -20 -1 -20 4 0 5 -45
9 -100 9 l-100 0 0 480 0 480 23 0 c12 0 271 0 575 0 382 0 560 4 574 11 15 8
22 8 28 0 4 -8 51 -11 151 -9 l144 3 3 293 3 292 -1106 0 -1105 0 -1 -632z
m1381 -1293 c10 -12 9 -15 -8 -15 -16 0 -20 -9 -25 -52 -4 -39 -1 -56 9 -64
19 -15 18 -21 -6 -27 -15 -4 -20 0 -20 15 0 20 -1 20 -19 4 -13 -12 -21 -14
-26 -6 -9 15 -25 2 -25 -20 0 -18 -1 -18 -28 -3 -27 16 -28 19 -21 60 9 48 39
102 39 70 0 -9 14 -24 31 -33 37 -19 52 -6 42 35 -4 17 0 28 12 38 24 17 30
16 45 -2z"/>
<path d="M20669 15018 c-1 -666 0 -1378 0 -1463 l1 -51 145 -2 c91 -1 145 2
145 8 0 6 9 10 20 10 11 0 20 -3 20 -8 0 -4 94 -7 209 -7 191 0 211 2 230 19
12 11 21 26 21 34 0 10 7 12 25 8 20 -5 25 -3 25 11 0 13 7 8 23 -14 28 -41
41 -37 43 10 1 46 5 51 30 32 16 -13 16 -14 2 -9 -15 5 -18 0 -18 -32 0 -22 5
-46 10 -54 8 -13 14 -13 42 3 21 12 34 15 36 8 5 -16 32 -13 32 3 0 15 24 28
34 19 3 -4 6 -15 6 -26 0 -13 5 -17 16 -13 9 3 20 6 25 6 5 0 9 9 9 20 0 11 4
20 10 20 5 0 7 -7 4 -15 -5 -11 1 -15 19 -15 14 0 27 -6 30 -12 3 -10 7 -10
17 -1 8 8 20 9 36 3 16 -7 27 -5 36 4 29 29 138 30 138 1 0 -20 62 -16 83 6
22 24 33 24 39 1 7 -27 80 -27 97 0 12 19 11 20 -27 14 -37 -5 -40 -3 -45 22
-3 16 0 33 9 42 12 12 14 11 14 -8 0 -28 18 -36 52 -23 30 11 43 4 26 -16 -9
-11 -7 -15 10 -20 12 -3 22 -11 22 -19 0 -9 16 -12 63 -10 58 2 62 4 62 27 0
13 4 30 8 37 5 6 6 16 2 21 -3 5 -1 12 4 15 5 4 12 2 16 -4 10 -17 22 -11 28
12 4 13 0 29 -9 39 -14 15 -10 49 6 49 4 0 13 -7 21 -16 7 -8 21 -13 31 -11
24 7 23 -1 -3 -24 -18 -15 -19 -21 -9 -34 7 -8 10 -21 7 -28 -3 -8 -2 -18 1
-23 9 -12 49 -34 62 -34 16 0 12 27 -5 34 -25 9 -35 48 -19 73 18 29 18 29 -8
53 -12 11 -16 20 -9 20 8 0 10 7 6 20 -4 11 -2 20 4 20 6 0 11 9 11 19 0 26
-29 36 -45 15 -16 -23 -55 -10 -54 19 l0 22 9 -22 c11 -27 33 -31 28 -5 -2 9
6 27 18 38 21 20 29 74 12 74 -14 0 -8 18 7 23 10 4 16 -5 23 -36 5 -23 5 -47
1 -52 -10 -13 13 -85 26 -85 25 0 54 32 53 58 0 15 3 37 7 50 7 21 5 22 -19
16 -19 -5 -26 -2 -26 9 0 10 7 13 20 10 22 -6 22 -5 11 55 -8 38 -7 42 10 37
12 -4 22 1 30 16 11 22 12 22 25 4 13 -18 15 -17 39 11 27 31 29 41 17 62 -9
14 -181 14 -219 1 -13 -5 -23 -5 -23 -1 0 12 -114 10 -122 -2 -6 -8 -8 -7 -8
2 0 6 -9 12 -19 12 -11 0 -22 -6 -24 -12 -4 -10 -8 -10 -14 -2 -12 17 -63 14
-63 -3 0 -13 -3 -13 -15 -3 -17 14 -136 24 -172 15 -13 -3 -23 -12 -23 -20 0
-8 -4 -15 -10 -15 -5 0 -10 9 -10 19 0 17 -7 19 -54 18 -30 -1 -58 -5 -61 -9
-4 -4 -15 -3 -24 1 -18 10 -250 13 -265 3 -6 -3 -22 -7 -35 -8 -14 -2 -27 -8
-29 -14 -6 -16 -22 -12 -22 6 0 11 -6 15 -20 11 -11 -3 -20 -1 -20 4 0 5 -45
9 -100 9 l-100 0 0 480 0 480 23 0 c12 0 271 0 575 0 382 0 560 4 574 11 15 8
22 8 28 0 4 -8 51 -11 151 -9 l144 3 3 293 3 292 -1106 0 -1105 0 -1 -632z
m1381 -1293 c10 -12 9 -15 -8 -15 -16 0 -20 -9 -25 -52 -4 -39 -1 -56 9 -64
19 -15 18 -21 -6 -27 -15 -4 -20 0 -20 15 0 20 -1 20 -19 4 -13 -12 -21 -14
-26 -6 -9 15 -25 2 -25 -20 0 -18 -1 -18 -28 -3 -27 16 -28 19 -21 60 9 48 39
102 39 70 0 -9 14 -24 31 -33 37 -19 52 -6 42 35 -4 17 0 28 12 38 24 17 30
16 45 -2z"/>
<path d="M12210 14950 c1 -529 4 -690 13 -690 8 0 7 -3 -2 -9 -9 -6 -11 -15
-6 -27 5 -11 7 -23 6 -29 -8 -31 -8 -445 0 -445 12 0 12 -47 -1 -55 -15 -9 -4
-176 12 -186 16 -11 230 -13 413 -5 21 1 33 8 40 24 12 27 29 24 33 -6 3 -19
10 -22 47 -22 40 0 44 2 50 31 9 40 41 37 37 -4 -2 -18 2 -27 12 -27 19 0 30
67 21 123 -4 23 -7 81 -7 129 1 66 -2 91 -14 103 -14 13 -14 15 0 15 17 0 18
7 17 110 0 30 1 134 1 230 1 96 0 259 -1 363 -2 103 -1 187 1 187 4 0 74 -138
161 -317 11 -24 24 -43 29 -43 4 0 8 -9 8 -20 0 -11 5 -20 11 -20 6 0 9 -6 6
-12 -2 -7 10 -42 28 -78 18 -36 59 -117 90 -180 31 -63 63 -120 71 -126 8 -6
14 -21 14 -32 0 -12 9 -38 19 -59 11 -21 25 -49 30 -63 6 -14 15 -32 20 -40 5
-8 17 -34 27 -57 11 -24 22 -43 27 -43 4 0 7 -7 7 -16 0 -26 39 -82 62 -89 14
-5 17 -10 9 -18 -15 -15 -14 -44 2 -50 18 -7 30 2 45 33 l12 25 -5 -27 c-5
-24 -2 -28 17 -29 115 -2 373 1 388 6 25 8 37 45 19 56 -11 7 -9 10 8 15 11 3
24 13 27 22 3 10 10 24 15 32 6 8 38 74 71 145 34 72 75 157 90 190 99 204
229 481 316 669 l69 150 3 -642 2 -642 178 -2 c202 -2 329 -2 420 0 l62 2 0
1070 0 1070 -508 0 -509 0 -15 -37 c-26 -63 -139 -316 -153 -343 -7 -14 -30
-65 -50 -115 -37 -91 -86 -199 -201 -446 -35 -75 -64 -141 -64 -148 0 -31 -20
-2 -55 82 -21 50 -62 144 -91 207 -28 63 -65 147 -82 185 -16 39 -64 144 -104
235 -41 91 -87 194 -103 230 -15 36 -37 84 -48 108 l-21 42 -513 0 -513 0 0
-690z"/>
<path d="M17803 14798 c2 -659 5 -846 14 -856 17 -17 16 -27 -2 -42 -18 -15
-20 -51 -3 -68 8 -8 9 -12 1 -12 -8 0 -11 -49 -10 -160 l2 -161 110 0 c61 0
139 -1 174 -2 45 -2 65 1 68 10 4 10 9 11 19 2 9 -8 66 -11 171 -10 86 1 158
3 160 5 3 3 3 8 4 136 3 511 -1 730 -14 730 -7 0 -7 4 2 9 11 7 14 33 13 118
-2 93 0 106 11 91 8 -10 16 -18 19 -18 2 0 56 -50 119 -111 63 -61 143 -139
179 -173 36 -35 74 -66 85 -69 11 -4 26 -20 33 -37 8 -16 17 -30 20 -30 4 0
44 -36 89 -79 46 -44 92 -83 103 -86 11 -4 18 -10 15 -15 -5 -8 56 -80 68 -80
3 0 30 -24 59 -53 67 -67 115 -101 123 -87 3 5 15 15 26 21 19 10 20 9 9 -10
-6 -12 -15 -21 -20 -21 -17 0 -11 -29 8 -39 10 -5 24 -21 32 -35 7 -14 17 -26
21 -26 4 0 39 -32 76 -70 l69 -70 408 -1 c225 0 411 3 414 6 4 4 -23 34 -58
68 -101 95 -276 256 -370 339 -126 110 -152 135 -251 229 l-90 85 81 18 c131
28 187 54 257 119 101 95 143 207 165 439 13 143 1 343 -28 453 -60 227 -199
333 -489 375 -42 6 -429 10 -982 10 l-912 0 2 -842z m1647 212 c67 -20 110
-73 110 -137 0 -49 -29 -96 -79 -128 l-41 -25 -465 0 -465 0 0 150 0 150 453
0 c275 0 466 -4 487 -10z"/>
<path d="M16378 14843 l-137 -4 -6 -52 c-6 -60 -1 -369 7 -383 3 -5 2 -18 -2
-29 -4 -11 -3 -29 2 -41 9 -19 19 -21 99 -22 62 -1 89 2 89 10 0 9 3 9 12 0 7
-7 37 -12 68 -12 31 0 61 5 68 12 7 7 12 8 12 2 0 -17 99 -11 110 6 8 13 10
13 15 0 4 -12 32 -16 142 -17 86 -1 142 2 150 9 9 7 13 7 13 -1 0 -7 41 -10
133 -8 l132 2 1 100 c1 55 -3 106 -8 113 -7 8 -7 16 0 25 6 7 11 71 11 150 l1
137 -322 1 c-178 0 -352 2 -388 3 -36 1 -127 0 -202 -1z"/>
<path d="M21628 14843 l-137 -4 -6 -52 c-6 -60 -1 -369 7 -383 3 -5 2 -18 -2
-29 -4 -11 -3 -29 2 -41 9 -19 19 -21 99 -22 62 -1 89 2 89 10 0 9 3 9 12 0 7
-7 37 -12 68 -12 31 0 61 5 68 12 7 7 12 8 12 2 0 -17 99 -11 110 6 8 13 10
13 15 0 4 -12 32 -16 142 -17 86 -1 142 2 150 9 9 7 13 7 13 -1 0 -7 41 -10
133 -8 l132 2 1 100 c1 55 -3 106 -8 113 -7 8 -7 16 0 25 6 7 11 71 11 150 l1
137 -322 1 c-178 0 -352 2 -388 3 -36 1 -127 0 -202 -1z"/>
<path d="M17593 14016 c4 -10 1 -13 -7 -10 -7 3 -20 -1 -27 -8 -8 -7 -23 -13
-33 -13 -31 0 -43 -30 -22 -54 11 -12 15 -21 9 -21 -11 0 -12 -75 0 -86 4 -4
17 -8 30 -10 12 -1 25 -3 29 -3 15 -2 -4 -30 -24 -37 -13 -4 -18 -12 -15 -24
3 -11 1 -20 -5 -22 -12 -4 1 -38 16 -38 6 0 19 18 29 40 9 22 22 40 28 40 7 0
9 12 5 35 -5 23 -2 45 9 65 14 27 14 30 0 30 -9 0 -14 8 -12 23 1 16 -3 22
-15 21 -10 -1 -18 4 -18 12 0 8 6 11 15 8 9 -4 18 1 22 12 3 11 11 22 16 25
13 9 -1 29 -20 29 -9 0 -13 -6 -10 -14z"/>
<path d="M22843 14016 c4 -10 1 -13 -7 -10 -7 3 -20 -1 -27 -8 -8 -7 -23 -13
-33 -13 -31 0 -43 -30 -22 -54 11 -12 15 -21 9 -21 -11 0 -12 -75 0 -86 4 -4
17 -8 30 -10 12 -1 25 -3 29 -3 15 -2 -4 -30 -24 -37 -13 -4 -18 -12 -15 -24
3 -11 1 -20 -5 -22 -12 -4 1 -38 16 -38 6 0 19 18 29 40 9 22 22 40 28 40 7 0
9 12 5 35 -5 23 -2 45 9 65 14 27 14 30 0 30 -9 0 -14 8 -12 23 1 16 -3 22
-15 21 -10 -1 -18 4 -18 12 0 8 6 11 15 8 9 -4 18 1 22 12 3 11 11 22 16 25
13 9 -1 29 -20 29 -9 0 -13 -6 -10 -14z"/>
<path d="M1410 12775 l0 -275 10890 0 10890 0 0 275 0 275 -10890 0 -10890 0
0 -275z"/>
<path d="M2610 11962 c0 -9 -148 -668 -156 -694 -5 -17 48 -18 1023 -18 l1028
0 26 -33 27 -33 -39 -175 c-21 -96 -41 -183 -44 -195 -2 -11 -24 -35 -49 -52
l-44 -32 -1024 0 -1023 0 -214 -957 c-118 -527 -216 -968 -219 -980 l-4 -23
1339 0 1339 0 50 25 c114 57 241 187 309 317 31 58 50 131 140 540 58 260 105
490 105 511 0 24 -16 72 -41 128 -40 85 -41 90 -25 108 28 30 49 111 167 634
119 529 126 575 94 683 -23 80 -49 128 -98 181 -73 80 50 73 -1382 73 -707 0
-1285 -4 -1285 -8z m1752 -1989 c10 -9 18 -23 18 -32 0 -9 -19 -99 -42 -200
l-42 -183 -45 -34 -44 -34 -703 0 c-492 0 -704 3 -704 11 0 10 98 453 105 477
4 9 157 12 721 12 654 0 719 -1 736 -17z"/>
<path d="M5750 11962 c0 -4 -134 -599 -297 -1322 l-297 -1315 0 -135 c-1 -126
1 -139 26 -192 50 -106 135 -177 259 -212 50 -15 165 -16 1100 -14 l1044 3 65
23 c226 81 416 285 474 507 20 77 596 2645 596 2656 0 5 -164 9 -364 9 l-364
0 -16 -67 c-8 -38 -130 -583 -271 -1213 -141 -630 -258 -1153 -261 -1162 -5
-17 -50 -18 -760 -18 -715 0 -755 1 -750 18 6 19 546 2429 546 2437 0 3 -164
5 -365 5 -201 0 -365 -3 -365 -8z"/>
<path d="M8877 11943 c-3 -16 -162 -723 -352 -1573 -190 -850 -349 -1557 -352
-1572 l-5 -28 89 0 89 0 -4 38 c-4 40 54 294 86 379 23 60 116 178 203 257 60
54 108 82 294 172 50 24 110 54 134 66 l44 23 253 1125 c140 619 254 1128 254
1133 0 4 -164 7 -364 7 l-363 0 -6 -27z"/>
<path d="M11680 11962 c0 -4 -139 -630 -310 -1392 -170 -761 -310 -1390 -310
-1397 0 -9 16 -13 53 -13 126 0 276 -24 407 -66 41 -13 152 -39 245 -59 187
-39 229 -51 355 -103 116 -47 196 -88 253 -128 l47 -34 153 -1 c83 0 146 -3
138 -6 -7 -3 -23 -15 -34 -26 l-20 -20 89 7 c49 4 108 8 131 10 24 1 51 10 61
19 16 15 57 17 347 19 l329 3 77 350 c43 193 78 353 79 358 0 4 -430 7 -956 7
l-957 0 6 33 c3 17 127 573 276 1235 149 661 271 1204 271 1207 0 3 -164 5
-365 5 -201 0 -365 -3 -365 -8z"/>
<path d="M14477 11943 c-3 -16 -162 -723 -352 -1573 -190 -850 -349 -1557
-352 -1573 l-6 -27 1324 2 1323 3 77 350 c43 193 78 353 79 358 0 4 -430 7
-955 7 -903 0 -955 1 -954 18 0 9 24 121 53 247 l53 230 504 5 503 5 83 365
c45 201 82 366 83 368 0 1 -227 2 -504 2 l-503 0 53 238 c30 130 56 247 59
260 l5 22 958 0 959 0 78 348 c43 191 80 353 83 360 3 9 -265 12 -1321 12
l-1324 0 -6 -27z"/>
<path d="M17280 11962 c0 -9 -148 -668 -156 -694 -5 -17 21 -18 461 -18 439 0
466 -1 461 -17 -9 -32 -546 -2442 -546 -2453 0 -16 716 -14 722 3 3 6 128 564
279 1240 l274 1227 496 0 496 0 78 348 c43 191 80 353 83 360 3 9 -265 12
-1322 12 -729 0 -1326 -4 -1326 -8z"/>
<path d="M20345 11946 c-120 -56 -291 -232 -340 -349 -8 -19 -67 -269 -130
-554 -124 -552 -140 -659 -116 -773 25 -121 84 -205 177 -251 l49 -24 904 -5
904 -5 20 -27 20 -27 -43 -188 -43 -188 -43 -32 -43 -33 -1068 0 -1068 0 -74
-338 c-41 -185 -76 -347 -79 -359 l-4 -23 1329 0 1330 0 63 32 c115 57 277
234 324 353 26 64 234 1012 246 1116 24 219 -39 378 -178 446 l-57 28 -900 3
-900 3 -21 29 -21 30 42 186 c41 185 41 186 80 219 l40 34 1073 1 c589 0 1072
2 1072 5 0 4 135 609 155 693 l5 22 -1327 0 -1328 0 -50 -24z"/>
<path d="M1430 11932 c0 -159 81 -771 150 -1127 74 -381 222 -1003 233 -975 3
8 114 472 246 1030 194 820 239 1023 234 1058 l-6 42 -428 0 -429 0 0 -28z"/>
<path d="M9326 9711 c-3 -4 -24 -11 -46 -15 -23 -3 -49 -10 -58 -15 -67 -33
-133 -61 -169 -70 -24 -7 -43 -16 -43 -21 0 -6 -5 -10 -10 -10 -17 0 -116 -51
-272 -142 -84 -48 -188 -154 -228 -232 -16 -33 -30 -65 -30 -72 0 -6 -6 -17
-14 -23 -32 -27 -47 -190 -31 -331 11 -94 18 -110 65 -161 47 -50 50 -52 94
-47 44 5 45 5 40 -22 -5 -21 0 -30 20 -43 14 -10 26 -22 26 -27 0 -5 11 -21
25 -36 21 -23 25 -37 25 -91 0 -67 10 -88 57 -112 18 -9 28 -8 46 4 30 19 53
11 73 -26 12 -24 21 -29 47 -28 18 1 40 -2 49 -6 13 -5 20 0 28 19 5 14 16 26
25 26 19 0 19 -24 0 -40 -22 -18 -19 -73 5 -95 16 -15 22 -15 35 -5 12 10 15
10 15 -4 0 -9 5 -16 10 -16 6 0 10 -7 10 -14 0 -8 16 -27 35 -42 l35 -26 54
27 c31 16 59 24 67 20 7 -5 10 -4 5 3 -8 13 70 76 84 67 5 -3 10 -17 10 -31 0
-39 65 -25 106 23 l22 26 222 -5 222 -4 40 -42 c22 -23 44 -42 50 -42 13 0 88
-79 88 -93 0 -5 16 -27 35 -48 19 -22 35 -48 35 -58 0 -11 14 -29 30 -41 17
-12 30 -30 30 -40 0 -10 5 -22 11 -26 6 -3 9 -19 7 -34 -3 -20 0 -27 11 -26
11 1 17 -10 19 -31 2 -18 7 -33 12 -33 4 0 11 -31 15 -70 4 -38 11 -70 16 -70
5 0 9 -11 9 -24 0 -13 7 -29 15 -36 8 -7 15 -21 15 -31 0 -11 4 -19 10 -19 18
0 32 -75 27 -150 -8 -103 -17 -160 -28 -160 -5 0 -9 -11 -9 -24 0 -13 -7 -37
-15 -52 -8 -16 -15 -41 -15 -55 0 -14 -3 -29 -7 -33 -5 -4 -12 -40 -18 -79
l-10 -72 -85 1 c-185 1 -405 17 -433 31 -17 9 -37 33 -52 66 -37 80 -47 89
-102 90 -43 1 -52 -2 -83 -35 -20 -19 -34 -41 -32 -46 2 -6 -2 -20 -8 -32 -8
-15 -8 -25 -1 -34 6 -7 10 -31 9 -53 -1 -27 6 -50 20 -71 25 -35 27 -59 8 -85
-13 -17 -16 -17 -46 -2 -18 9 -38 14 -46 11 -17 -6 -74 61 -74 89 0 11 -15 36
-32 54 -24 27 -39 35 -66 35 -22 0 -37 -6 -43 -17 -6 -9 -15 -17 -22 -17 -21
-1 -48 -77 -54 -153 -5 -71 -5 -73 21 -85 14 -6 27 -16 27 -22 4 -32 0 -50
-19 -93 -20 -43 -22 -66 -22 -213 0 -177 -9 -222 -53 -256 l-22 -17 27 -27
c26 -27 27 -27 55 -9 42 27 93 81 93 98 0 8 7 20 15 27 8 7 15 20 15 29 0 9 4
21 10 27 5 5 11 75 12 154 3 129 5 145 21 148 20 4 77 -19 77 -30 0 -5 6 -8
13 -8 35 -1 72 -60 47 -75 -17 -11 -12 -134 7 -166 17 -29 17 -29 -19 -66 -48
-51 -61 -124 -28 -166 12 -15 28 -27 37 -27 11 0 13 -4 5 -12 -5 -7 -13 -28
-17 -46 -6 -29 -3 -38 21 -63 15 -16 34 -29 41 -29 7 0 10 -6 7 -14 -7 -18 52
-66 82 -66 17 0 24 -6 24 -20 0 -13 7 -20 19 -20 11 0 23 -4 26 -10 9 -14 38
-12 71 5 16 8 36 15 45 15 9 0 28 10 43 21 22 17 35 20 68 15 22 -4 47 -13 55
-22 9 -8 22 -13 29 -10 7 3 16 1 19 -4 9 -15 61 -12 100 4 23 10 39 26 49 50
19 45 28 47 15 4 -11 -40 -40 -65 -84 -74 -36 -6 -69 -43 -60 -66 4 -10 -49
-13 -277 -13 -192 -1 -290 -5 -304 -12 -19 -11 -54 -18 -149 -30 -22 -3 -44
-9 -49 -14 -6 -5 -22 -9 -37 -9 -15 0 -32 -7 -39 -15 -7 -8 -31 -20 -54 -26
-50 -14 -83 -28 -118 -51 -14 -10 -33 -18 -42 -18 -9 0 -19 -7 -22 -15 -4 -8
-10 -13 -14 -10 -5 3 -12 -1 -17 -8 -4 -7 -35 -26 -68 -41 -33 -15 -75 -41
-95 -57 -55 -46 -59 -49 -68 -49 -13 0 -290 -288 -316 -328 -13 -21 -33 -45
-44 -56 -12 -10 -24 -31 -27 -47 -4 -16 -12 -32 -18 -36 -7 -5 -17 -19 -23
-33 -6 -14 -17 -38 -25 -55 -7 -16 -19 -38 -27 -47 -8 -9 -11 -22 -7 -27 3 -6
1 -11 -4 -11 -6 0 -11 -7 -11 -16 0 -9 -7 -30 -16 -47 -29 -55 -31 -62 -44
-120 -7 -31 -17 -57 -23 -57 -5 0 -7 -17 -5 -38 3 -20 1 -44 -3 -52 -22 -46
-49 -203 -49 -291 0 -35 4 -98 10 -139 5 -41 15 -114 21 -163 6 -48 15 -90 20
-93 5 -3 9 -19 9 -36 0 -31 15 -87 31 -120 5 -10 9 -24 9 -31 0 -7 9 -32 20
-55 31 -63 43 -96 41 -106 -1 -4 2 -13 7 -20 16 -19 62 -106 62 -116 0 -5 21
-39 48 -75 26 -37 52 -74 57 -83 6 -10 12 -19 15 -22 3 -3 25 -30 49 -60 66
-82 187 -204 266 -269 61 -50 306 -211 321 -211 3 0 33 -13 67 -29 34 -16 80
-35 102 -42 22 -7 46 -17 53 -22 7 -6 22 -11 35 -13 12 -2 45 -9 72 -14 28 -6
64 -13 80 -17 17 -3 37 -12 46 -19 8 -8 39 -18 69 -24 66 -12 287 -12 400 1
47 5 109 12 138 16 28 3 52 8 52 12 0 3 23 7 52 9 28 1 56 6 62 11 6 4 29 12
51 16 22 4 51 13 65 20 14 7 36 17 50 23 78 31 264 127 321 164 130 86 277
225 392 372 34 44 69 87 77 96 25 26 160 292 160 315 0 4 6 21 14 38 32 76 45
117 60 192 9 44 22 100 28 125 15 61 22 390 8 404 -5 5 -10 27 -10 48 0 21 -6
53 -13 71 -8 18 -17 61 -21 97 -8 72 -23 127 -43 151 -7 8 -13 24 -13 35 0 11
-4 24 -8 29 -4 6 -14 28 -21 50 -7 22 -21 58 -31 80 -10 22 -24 55 -32 72 -7
18 -16 33 -19 33 -4 0 -19 25 -34 55 -14 30 -31 55 -36 55 -5 0 -9 7 -9 15 0
8 -15 32 -33 52 -18 21 -51 63 -74 93 -23 30 -69 83 -103 118 -33 34 -60 65
-60 68 0 14 -69 74 -110 96 -48 25 -102 59 -110 69 -5 5 -91 59 -135 85 -10 6
-21 17 -23 25 -2 8 3 5 12 -6 13 -17 17 -18 25 -6 5 8 7 20 4 28 -3 7 0 13 5
13 13 0 42 28 42 41 0 23 -46 2 -59 -26 -9 -18 -16 -24 -19 -17 -5 16 36 62
55 62 21 0 98 -55 153 -109 53 -52 129 -115 177 -148 17 -12 49 -41 70 -64 42
-48 42 -47 198 -215 61 -65 135 -145 165 -178 30 -33 87 -92 125 -132 39 -40
88 -93 110 -118 22 -25 63 -70 90 -99 28 -29 97 -105 155 -168 57 -63 125
-136 150 -163 44 -47 64 -69 163 -174 44 -47 47 -54 47 -105 0 -55 -15 -84
-78 -152 -33 -35 -82 -103 -82 -112 0 -4 -16 -17 -35 -27 -19 -11 -40 -32 -47
-47 -7 -16 -16 -29 -20 -29 -5 0 -8 -8 -8 -18 0 -20 -35 -62 -51 -62 -6 0 -28
-13 -49 -30 -20 -16 -40 -27 -43 -23 -4 3 -12 2 -19 -4 -7 -5 -31 -15 -54 -22
-46 -15 -92 -53 -114 -94 -13 -26 -13 -30 3 -39 10 -5 15 -14 11 -19 -7 -12
82 -98 114 -110 13 -5 38 -9 55 -9 18 0 39 -4 46 -9 8 -5 22 -6 30 -2 9 5 55
12 102 16 l86 7 -4 -29 c-4 -24 2 -33 40 -61 60 -43 93 -42 138 4 18 19 60 47
92 61 56 25 74 52 46 69 -15 9 47 64 71 64 10 0 23 -7 31 -16 7 -9 33 -25 58
-36 25 -11 54 -24 63 -29 10 -5 31 -9 47 -9 17 0 33 -5 37 -11 5 -9 41 -10
128 -5 67 4 184 11 261 15 77 4 154 13 172 20 59 23 93 12 143 -50 117 -144
159 -190 239 -262 82 -75 196 -167 206 -167 3 0 31 -19 62 -43 85 -63 179
-107 390 -181 35 -13 66 -25 70 -29 3 -4 21 -7 39 -7 18 0 35 -4 38 -9 3 -4
27 -11 53 -14 27 -3 82 -11 123 -18 109 -17 410 -5 518 21 46 11 95 20 110 20
15 0 35 7 45 15 11 7 25 11 32 9 7 -3 16 -1 20 5 3 6 15 11 25 11 11 0 43 11
72 24 56 25 87 38 103 41 9 2 96 50 135 75 8 5 42 25 75 45 129 77 304 220
358 293 23 30 69 87 103 126 97 114 123 153 205 310 17 32 120 330 123 356 1
8 7 32 15 53 7 21 10 45 7 53 -3 8 0 61 6 117 10 90 11 184 4 380 l-3 57 281
0 281 0 -120 -66 c-66 -36 -168 -90 -227 -120 -63 -31 -108 -61 -111 -71 -15
-52 -28 -128 -37 -213 -5 -52 -18 -129 -29 -170 -10 -41 -22 -96 -26 -123 -11
-83 -53 -188 -105 -262 -27 -40 -59 -98 -71 -130 -33 -88 -120 -207 -263 -359
-150 -159 -200 -200 -363 -297 -140 -84 -127 -83 134 7 267 93 309 108 388
144 39 17 90 40 115 50 25 10 95 39 155 65 61 25 137 58 170 72 54 23 586 280
610 295 6 3 55 30 110 58 55 29 125 67 155 85 30 18 98 56 150 86 256 144
1087 722 1280 891 30 26 107 90 171 140 479 381 1069 970 1439 1438 36 45 90
112 120 150 202 249 356 458 519 700 65 96 147 218 182 270 57 85 130 200 209
330 142 233 480 893 480 936 0 2 -285 4 -633 4 l-633 0 -27 -54 -26 -55 -2463
-3 -2463 -3 -127 63 c-129 63 -143 68 -134 54 2 -4 -14 -7 -37 -7 -23 1 -258
-2 -522 -6 -264 -4 -573 -8 -686 -9 -113 -1 -212 -6 -220 -11 -15 -10 -19 -8
46 -14 17 -1 41 -5 55 -9 21 -5 22 -5 5 4 -15 7 -9 9 27 6 26 -3 53 -8 59 -12
7 -4 9 -3 6 3 -4 6 1 14 10 17 9 4 19 2 23 -4 4 -6 34 -10 73 -8 38 2 69 -1
71 -7 3 -7 7 -7 13 0 10 12 166 15 174 3 3 -5 17 -5 30 0 13 4 79 8 146 7 73
0 125 4 128 10 3 7 7 7 10 0 6 -11 268 -13 302 -1 12 4 24 3 27 -3 9 -13 186
-11 186 3 0 7 3 6 8 -1 6 -9 32 -12 85 -10 58 2 84 -1 109 -15 l33 -17 -87 -1
c-48 0 -89 4 -92 9 -4 6 -20 6 -39 1 -17 -5 -99 -9 -182 -8 -234 0 -257 -1
-250 -12 8 -13 81 -13 105 0 10 6 21 6 24 2 3 -5 129 -8 279 -6 151 1 281 -2
288 -7 8 -5 -649 -8 -1506 -8 -836 0 -1511 4 -1500 8 11 4 34 7 52 5 18 -1 31
2 27 7 -3 5 -29 9 -57 9 l-52 0 -38 78 c-54 111 -106 204 -126 227 -9 11 -29
39 -45 61 -15 23 -45 58 -67 77 -26 24 -39 44 -39 61 0 14 -6 26 -12 26 -7 0
2 13 21 29 40 33 37 42 -34 99 -108 87 -112 91 -90 92 25 1 -200 113 -275 136
-30 9 -82 29 -115 44 -113 51 -176 68 -297 85 -57 8 -122 19 -145 24 -24 6
-60 15 -80 20 -21 5 -63 16 -93 24 -298 79 -491 98 -863 86 -266 -9 -370 -18
-420 -38 -15 -6 -31 -10 -35 -9 -15 3 -69 -15 -134 -43 -67 -30 -67 -30 -122
-14 -30 9 -71 29 -90 45 -20 15 -59 33 -86 40 -61 15 -80 44 -80 120 0 50 16
86 57 128 21 22 3 41 -45 48 -73 11 -106 34 -110 76 -2 29 -8 37 -28 42 -14 4
-34 4 -45 1 -11 -4 -19 -2 -19 4 0 6 5 11 11 11 6 0 8 8 4 19 -4 14 0 23 15
31 28 15 25 30 -7 30 -44 0 -61 15 -45 40 22 35 15 50 -22 50 -19 0 -37 -4
-40 -9z m1877 -1877 c9 -4 17 -10 17 -14 0 -8 71 -33 129 -45 19 -4 69 -8 112
-9 58 -1 82 -5 96 -18 14 -13 37 -18 85 -18 61 0 66 -2 78 -27 7 -16 13 -38
14 -51 1 -13 8 -27 16 -33 11 -6 12 -11 4 -16 -6 -5 -26 -30 -43 -58 -36 -58
-85 -117 -158 -194 -29 -30 -53 -59 -54 -65 0 -6 -5 3 -11 19 -9 25 -45 79
-86 130 -13 17 -52 104 -52 118 0 7 -4 17 -10 23 -13 13 -69 107 -98 165 -13
26 -37 61 -53 79 -16 17 -24 29 -17 26 7 -3 21 -9 31 -12z m9574 -68 c2 -2
-31 -60 -169 -298 l-33 -58 -1845 -2 c-1015 -2 -1853 1 -1863 5 -10 5 -24 4
-30 -1 -7 -6 -58 -7 -127 -2 -96 6 -104 7 -50 10 l65 3 -59 7 c-32 4 -290 8
-573 9 -283 0 -518 3 -524 6 -5 4 -9 3 -9 -2 0 -4 -49 -7 -110 -5 -71 2 -110
0 -110 -7 0 -6 43 -12 108 -14 l107 -3 -129 -2 c-115 -2 -128 0 -110 12 17 13
0 15 -143 15 -90 0 -163 -4 -163 -9 0 -5 12 -11 28 -13 22 -3 20 -4 -10 -6
-26 -1 -38 3 -38 13 0 11 -93 14 -572 15 -315 1 -582 2 -593 2 -11 1 -215 -1
-453 -3 -237 -1 -432 -2 -432 0 0 2 6 10 14 17 19 20 252 21 283 2 6 -4 13 -3
15 1 4 12 78 23 78 11 0 -5 -5 -9 -12 -9 -6 0 -8 -3 -5 -6 4 -4 12 -2 19 3 21
17 67 22 61 7 -4 -10 2 -11 29 -3 18 5 105 9 193 9 187 -1 206 -2 222 -13 8
-5 11 -3 8 5 -4 10 27 13 157 11 90 -2 258 -2 373 -2 281 1 323 -1 350 -11 15
-6 25 -5 27 2 3 7 140 10 433 8 237 -1 464 -1 505 -1 112 1 298 -1 358 -3 28
-1 52 2 52 7 0 4 5 5 11 2 6 -4 72 -7 147 -6 75 0 156 1 180 0 31 0 42 4 42
15 0 23 -32 28 -158 26 -64 -1 -849 -2 -1744 -1 l-1628 1 2 93 c1 50 -2 112
-6 135 l-8 44 3918 -7 c2156 -4 3920 -8 3921 -9z m-7666 -576 c134 -11 249
-22 254 -24 6 -3 -34 -5 -87 -5 -128 -1 -189 -16 -239 -59 -31 -27 -39 -40
-37 -61 3 -25 5 -26 68 -24 36 1 109 5 162 9 89 5 103 4 170 -21 40 -15 82
-29 93 -32 11 -3 27 -11 35 -18 8 -7 36 -18 62 -25 53 -14 53 -15 24 -105 -13
-38 -22 -71 -45 -162 -6 -24 -15 -60 -21 -80 -36 -143 -43 -172 -47 -203 -3
-19 -11 -42 -18 -50 -7 -8 -15 -42 -19 -75 -3 -33 -13 -73 -21 -90 -8 -16 -17
-47 -20 -67 -10 -65 -35 -71 -254 -63 -102 3 -237 8 -300 10 -62 2 -130 6
-150 9 -20 3 -74 8 -121 11 -47 2 -134 7 -195 10 -92 5 -155 17 -174 31 -2 2
1 9 6 16 6 7 34 58 63 113 28 55 58 111 65 125 8 14 30 63 49 110 19 47 42 99
50 115 24 52 44 98 64 150 24 61 67 143 90 171 9 11 18 27 20 35 2 8 10 19 19
26 8 6 12 17 8 23 -4 6 23 44 62 88 38 42 78 89 87 105 10 15 26 27 36 27 10
0 127 -9 261 -20z m7312 -10 c-9 -14 -50 -73 -91 -133 l-75 -107 -1376 3
c-3196 6 -4716 11 -4572 17 139 4 152 6 136 20 -14 11 -19 12 -22 3 -3 -7 -18
-13 -35 -13 -21 0 -31 6 -35 20 -3 11 -12 20 -19 20 -16 0 -19 -27 -4 -32 5
-1 -22 -4 -60 -5 -39 -1 -70 0 -70 2 0 16 70 38 189 61 41 7 78 19 83 26 13
21 9 65 -8 78 -8 8 -20 22 -25 32 -10 18 20 18 1066 16 591 -2 1075 0 1075 5
0 4 54 6 120 5 66 -2 120 -6 120 -10 0 -5 25 -8 55 -8 30 0 55 4 55 10 0 6
336 10 957 10 526 0 958 2 960 3 2 2 361 3 798 3 l794 -1 -16 -25z m-2684
-424 c-2 -2 -114 -9 -249 -15 -256 -12 -351 -19 -359 -27 -9 -8 482 10 544 21
6 1 27 3 48 3 21 1 36 5 34 10 -5 6 781 6 1932 -1 l424 -2 -69 -90 c-37 -49
-99 -127 -136 -172 l-69 -83 -837 0 c-654 0 -841 3 -850 12 -9 9 -15 9 -20 3
-7 -11 -4265 -15 -4275 -5 -3 3 6 48 19 100 13 52 24 105 24 117 0 12 5 33 11
47 10 21 20 25 78 30 84 7 997 9 1811 3 630 -5 709 -3 1410 31 408 20 536 25
529 18z m1995 -478 c-4 -7 -32 -41 -63 -75 l-54 -63 -2919 0 c-2445 0 -2918 2
-2918 13 0 14 14 60 32 110 l10 27 2960 0 c2365 0 2958 -3 2952 -12z m-706
-245 c395 -4 481 -7 475 -18 -5 -7 -30 -36 -57 -65 l-49 -53 -2826 2 c-1554 1
-2827 4 -2830 7 -2 2 1062 4 2365 4 1540 1 2363 4 2352 10 -19 12 -214 17
-224 7 -10 -9 -26 -9 -21 1 3 4 -19 7 -49 8 -29 1 -51 -3 -48 -8 7 -11 -7 -10
-26 2 -9 6 -17 5 -22 -3 -5 -7 -8 -8 -8 -1 0 6 -13 9 -31 6 -22 -3 -30 -1 -25
7 10 16 -9 14 -23 -3 -9 -10 -20 -12 -41 -6 -16 4 -31 6 -33 3 -8 -7 -77 -11
-77 -4 0 4 6 13 13 20 9 11 7 10 -10 0 -13 -8 -23 -18 -23 -22 0 -5 -8 -6 -17
-2 -27 11 -352 12 -345 1 3 -5 -1 -5 -9 0 -16 10 -59 13 -59 3 0 -3 -12 -4
-27 -2 -57 9 -108 8 -115 -2 -5 -6 -8 -6 -8 2 0 8 -9 9 -29 3 -15 -4 -34 -4
-42 1 -8 4 -19 3 -27 -3 -8 -7 -16 -8 -20 -2 -8 10 -282 14 -282 3 0 -3 -17
-4 -37 -2 -84 9 -299 9 -311 -1 -9 -6 -16 -6 -20 1 -9 13 -42 13 -42 -1 0 -6
-4 -5 -9 3 -7 10 -21 12 -54 7 -81 -12 -226 -13 -231 -2 -3 7 -9 5 -15 -4 -6
-8 -11 -10 -11 -5 0 6 -23 10 -55 9 -37 -1 -52 2 -48 10 4 6 0 5 -9 -2 -17
-14 -128 -12 -162 3 -11 5 -26 3 -38 -4 -10 -6 -23 -9 -28 -6 -4 3 -10 1 -12
-3 -1 -5 -34 -5 -73 -2 -45 4 -73 3 -77 -4 -6 -8 -11 -6 -17 4 -14 20 -4 30
27 29 15 -1 35 2 45 6 12 5 17 2 17 -10 0 -13 4 -15 13 -8 20 17 77 24 77 11
0 -9 3 -9 12 0 16 16 55 15 61 0 4 -10 8 -9 16 2 10 14 15 8 12 -15 -1 -5 5
-2 12 7 8 10 17 14 21 10 10 -9 66 -12 66 -3 0 10 31 8 48 -3 6 -4 18 -4 24 0
18 11 48 12 48 2 0 -4 7 -8 15 -8 8 0 15 5 15 10 0 6 7 10 15 10 8 0 15 -5 15
-11 0 -5 5 -7 11 -3 15 9 129 13 129 4 0 -3 29 -7 65 -8 36 -1 65 2 65 7 0 5
15 5 34 1 22 -5 39 -3 45 3 8 8 11 8 11 0 0 -11 146 -10 157 1 4 3 12 1 20 -5
10 -9 13 -8 13 2 0 8 6 5 15 -7 15 -19 15 -19 8 1 -6 18 -5 18 10 7 9 -8 25
-11 37 -7 12 4 20 2 20 -5 0 -7 6 -5 16 4 19 20 28 20 21 2 -4 -10 -1 -13 9
-9 7 3 14 9 14 15 0 5 10 6 22 2 12 -3 40 -7 63 -9 23 -1 48 -5 55 -10 8 -5
17 -2 24 6 11 14 76 20 76 7 0 -4 10 -6 23 -4 12 3 22 5 22 6 0 1 10 3 23 6
12 2 22 0 22 -4 0 -9 66 -9 75 0 3 3 25 2 48 -3 23 -4 46 -4 51 2 6 5 15 4 23
-2 9 -8 17 -8 27 0 10 8 21 9 41 1 16 -6 31 -7 34 -3 6 8 25 9 46 3 6 -2 54
-3 108 -4 84 -1 97 1 97 16 0 15 -54 16 -700 15 -385 -1 -700 2 -700 7 0 4 -7
5 -16 2 -12 -5 -1522 -8 -1859 -4 -11 0 -99 -1 -195 -1 -96 -1 -209 1 -250 4
-78 6 -192 13 -222 14 -10 1 -18 8 -18 16 0 13 269 15 2393 13 1315 -1 2609
-3 2875 -5z m-4677 -73 c14 -8 19 -7 19 1 0 8 4 8 15 -1 10 -8 15 -9 15 -1 0
7 8 8 23 3 12 -5 34 -7 50 -6 19 2 25 -1 20 -9 -5 -8 -2 -8 9 1 8 7 22 10 31
6 8 -3 25 -1 36 6 16 8 21 8 21 -1 0 -7 3 -10 6 -7 3 4 19 2 35 -2 17 -5 29
-5 29 0 0 5 7 7 15 4 8 -4 15 -2 15 4 0 5 15 8 33 7 17 -2 31 -8 30 -14 -4
-14 -1 -14 32 -1 31 12 46 6 38 -16 -3 -9 -12 -13 -22 -9 -23 10 -71 12 -76 5
-2 -4 -24 -4 -48 0 -24 3 -52 3 -63 -1 -10 -3 -26 -3 -34 1 -8 5 -35 4 -60 0
-31 -6 -47 -5 -52 3 -6 9 -11 8 -18 -3 -5 -8 -10 -10 -10 -4 0 6 -11 12 -25
12 -13 0 -23 -3 -21 -7 2 -3 -16 -6 -40 -6 -24 0 -44 3 -44 7 0 4 -11 3 -24
-2 -19 -7 -25 -5 -29 9 -3 14 0 17 14 14 11 -3 19 0 19 6 0 14 35 14 61 1z
m547 -5 c15 -2 33 2 40 8 10 8 16 7 22 -2 6 -10 9 -10 15 -1 6 9 9 9 15 1 5
-8 14 -9 33 -2 18 7 27 7 31 -2 3 -9 7 -8 15 3 7 9 14 11 19 5 10 -14 72 -15
72 -1 0 6 5 4 10 -4 6 -9 13 -11 18 -5 9 12 42 19 42 8 0 -12 60 -11 60 1 0 6
5 3 11 -6 5 -10 15 -18 22 -18 8 0 8 3 -2 9 -25 16 8 23 46 10 26 -8 38 -9 41
-1 2 6 9 9 15 7 29 -10 77 -12 77 -4 0 16 30 9 51 -12 12 -12 15 -19 8 -17 -8
3 -24 1 -36 -3 -12 -5 -24 -5 -27 -1 -2 4 -39 7 -80 6 -55 -2 -74 1 -69 9 4 8
2 8 -9 0 -9 -8 -36 -12 -66 -10 -29 2 -52 -1 -52 -5 0 -5 -5 -6 -12 -2 -17 11
-192 14 -198 3 -3 -4 -23 -3 -45 4 -30 9 -39 9 -43 -1 -4 -14 -32 -17 -32 -3
0 5 -14 7 -31 4 -28 -4 -29 -3 -18 16 7 11 17 17 22 14 4 -3 20 -6 35 -8z
m-2619 -46 c36 -5 151 -14 255 -19 105 -6 245 -15 311 -20 66 -6 187 -15 268
-20 82 -6 157 -15 167 -20 25 -13 32 -54 20 -120 -13 -79 -33 -154 -42 -161
-4 -3 -13 -43 -18 -90 -6 -46 -19 -113 -29 -149 -11 -36 -25 -99 -31 -140 -20
-123 -21 -124 -85 -116 -61 7 -180 47 -240 81 -52 30 -155 92 -177 107 -10 7
-46 30 -81 53 -70 44 -173 123 -223 170 -117 112 -147 137 -214 181 -41 27
-81 55 -88 62 -7 6 -18 12 -23 12 -26 0 8 89 63 165 31 42 35 45 68 40 19 -3
64 -10 99 -16z m6873 -260 c-79 -78 -137 -127 -144 -123 -6 4 -8 3 -5 -3 4 -6
-2 -18 -13 -28 -15 -13 -32 -16 -90 -13 -39 2 -93 2 -119 -2 -38 -5 -48 -3
-44 7 3 7 0 13 -6 13 -6 0 -11 -4 -11 -10 0 -6 -108 -9 -290 -8 -159 1 -290 6
-290 10 0 4 -7 8 -15 8 -8 0 -15 -4 -15 -10 0 -6 -60 -10 -161 -10 -92 0 -158
-4 -155 -9 4 -5 253 -8 585 -7 318 0 577 -2 574 -6 -2 -5 -783 -8 -1735 -8
-952 0 -1729 3 -1725 6 3 3 281 6 617 5 508 0 610 2 601 13 -8 9 -31 13 -74
10 -152 -8 -219 -6 -227 6 -6 9 -16 10 -41 2 -19 -6 -133 -10 -259 -10 -124 0
-292 -1 -374 -2 -114 -1 -151 2 -157 12 -7 11 -11 11 -18 -1 -7 -11 -27 -13
-88 -8 -71 5 -100 10 -218 39 -22 5 -56 13 -75 18 -19 5 -98 13 -175 19 -144
10 -386 -4 -482 -28 -24 -6 -62 -16 -85 -22 -24 -6 -57 -13 -75 -16 -18 -3
-38 -11 -44 -19 -6 -8 -22 -14 -35 -14 -12 0 -26 -4 -29 -10 -3 -5 -15 -10
-26 -10 -10 0 -28 -5 -38 -12 -24 -14 -51 -4 -51 20 0 10 -7 33 -16 50 -12 24
-22 32 -43 32 -15 0 -32 -5 -39 -12 -19 -19 -52 24 -52 66 0 19 -4 38 -10 41
-5 3 -10 15 -10 26 0 18 -13 23 -49 21 -14 0 -47 26 -40 32 12 10 633 16 1794
18 721 1 1429 5 1575 9 457 12 693 19 745 24 28 3 102 7 165 11 63 3 117 8
119 10 2 2 230 4 505 4 l501 -1 -133 -130z m-5339 22 c21 -20 37 -45 37 -57 0
-35 18 -74 37 -81 21 -8 63 -50 63 -63 0 -5 -11 -20 -24 -33 l-24 -24 -13 26
c-8 14 -27 43 -44 63 -17 20 -37 50 -45 65 -21 41 -72 117 -82 121 -21 9 -5
22 25 20 21 -1 44 -13 70 -37z m-124 -197 c19 -27 38 -50 43 -52 4 -2 8 -9 8
-15 0 -7 18 -35 39 -64 22 -28 37 -54 34 -57 -4 -3 0 -6 8 -6 8 0 20 -9 27
-21 12 -19 11 -23 -9 -37 -36 -25 -148 -124 -216 -190 -61 -60 -61 -60 -82
-41 -11 10 -25 19 -31 19 -12 0 -13 17 -1 24 5 3 12 34 15 68 10 93 47 261 63
279 7 8 13 22 13 29 0 29 34 120 44 117 6 -2 26 -26 45 -53z m-2414 -75 c22
-6 54 -13 70 -16 43 -6 135 -107 223 -244 53 -84 68 -115 57 -117 -8 -2 -15
-9 -15 -16 0 -17 45 -58 60 -54 7 2 23 -21 36 -52 15 -35 18 -46 7 -30 -10 14
-46 53 -80 88 -35 35 -86 91 -114 125 -51 61 -52 62 -28 69 19 6 17 7 -8 3
-30 -4 -38 2 -134 110 -56 63 -126 133 -155 156 -30 23 -54 43 -54 45 0 2 21
-10 47 -26 26 -17 66 -35 88 -41z m5699 -168 c3 -4 225 -9 493 -10 545 -1 754
-8 766 -25 5 -8 9 -8 15 0 4 8 26 10 59 7 42 -4 50 -8 46 -22 -4 -11 0 -9 14
6 17 19 24 21 61 12 29 -6 48 -6 60 2 14 9 26 7 55 -10 21 -12 48 -21 60 -21
18 -1 13 -9 -33 -50 -30 -27 -56 -47 -58 -45 -2 2 -16 -10 -30 -26 l-27 -29
-1149 -1 c-852 0 -1152 3 -1162 12 -8 6 -14 20 -14 31 0 14 -5 18 -16 14 -10
-4 -43 19 -101 71 l-85 78 254 5 c454 10 787 10 792 1z m-2044 -16 c10 -12 38
-15 136 -15 86 0 137 -5 170 -16 25 -9 55 -17 66 -19 11 -3 26 -10 34 -16 8
-7 17 -9 21 -6 3 4 18 -2 32 -12 14 -10 37 -22 51 -25 14 -4 44 -16 67 -27 24
-10 50 -19 58 -19 8 0 15 -3 15 -8 0 -4 8 -12 18 -17 26 -14 93 -62 153 -110
28 -22 65 -50 82 -63 76 -55 139 -125 194 -214 24 -39 43 -72 43 -74 0 -2 16
-26 35 -53 19 -26 35 -53 35 -60 0 -6 5 -11 10 -11 6 0 10 -9 10 -19 0 -11 5
-23 10 -26 6 -3 10 -17 10 -30 0 -13 5 -27 10 -30 6 -3 10 -17 10 -30 0 -13 4
-26 10 -30 5 -3 7 -12 4 -19 -3 -7 2 -18 10 -25 9 -7 18 -29 22 -50 4 -20 9
-40 13 -46 3 -5 6 -21 7 -35 1 -14 8 -47 14 -75 7 -29 12 -131 12 -245 1 -188
-4 -229 -37 -325 -15 -44 -63 -155 -75 -175 -5 -8 -26 -49 -47 -90 -32 -65
-67 -118 -116 -180 -7 -8 -23 -31 -36 -50 -38 -54 -220 -238 -271 -272 -64
-45 -291 -158 -315 -158 -11 0 -35 -9 -53 -20 -18 -11 -38 -20 -45 -20 -6 0
-24 -7 -39 -14 -15 -8 -53 -18 -85 -22 -32 -4 -72 -13 -90 -20 -39 -17 -359
-19 -438 -3 -27 5 -79 15 -115 20 -60 10 -109 26 -152 49 -10 6 -22 10 -28 10
-16 0 -158 68 -225 109 -166 99 -412 328 -383 356 3 4 64 10 134 16 71 5 155
16 187 24 32 8 78 15 102 15 24 0 47 5 50 10 3 6 29 10 56 10 28 0 58 4 68 10
10 5 45 14 77 20 134 25 171 31 206 34 20 2 42 7 48 11 15 9 109 24 210 33 82
8 85 9 148 61 53 44 75 77 65 95 -4 8 -39 40 -78 71 -115 94 -112 87 -63 136
l41 41 29 -17 c16 -9 32 -15 35 -12 3 3 15 -3 27 -14 30 -29 76 -19 127 28 22
21 49 43 59 48 10 6 32 29 49 53 17 23 35 42 39 42 4 0 14 16 21 35 7 19 17
35 22 35 5 0 9 6 9 14 0 7 7 19 15 26 17 14 22 120 5 120 -5 0 -10 4 -10 10 0
21 -53 120 -84 157 -18 21 -32 44 -30 51 1 7 0 8 -2 3 -3 -5 -18 -3 -34 6 -53
26 -250 15 -311 -18 -13 -6 -37 -7 -69 -1 -38 7 -56 6 -77 -5 -26 -13 -29 -13
-45 9 -10 13 -27 32 -38 43 -11 12 -20 28 -20 38 0 9 -4 17 -9 17 -5 0 -23 21
-40 48 -17 26 -51 74 -76 106 -25 33 -45 63 -45 67 0 3 -16 23 -35 43 -19 21
-35 43 -35 51 0 7 -3 15 -7 17 -9 3 -60 70 -113 148 -19 28 -56 78 -82 113
-26 34 -48 67 -48 73 0 6 -7 17 -16 25 -9 7 -29 32 -45 55 l-29 42 52 26 c29
14 58 26 65 26 7 0 13 4 13 8 0 15 141 72 230 92 30 7 60 16 65 20 18 14 158
21 255 12 98 -9 115 -8 90 8 -13 8 -13 10 1 10 9 0 22 -7 29 -15z m-4920 -134
c25 -6 61 -14 80 -17 52 -10 61 -20 45 -52 -40 -81 -60 -127 -60 -139 0 -7 -5
-17 -11 -21 -10 -6 -26 -50 -29 -77 0 -5 -6 -19 -12 -30 -6 -11 -21 -49 -33
-85 -12 -36 -29 -73 -37 -82 -9 -10 -13 -24 -10 -33 4 -8 2 -15 -3 -15 -6 0
-10 -8 -10 -18 0 -17 -16 -58 -40 -103 -4 -9 -11 -38 -15 -65 -4 -27 -14 -59
-22 -72 -8 -13 -16 -33 -17 -45 -2 -12 -6 -29 -8 -37 -6 -15 -17 -56 -40 -145
-7 -27 -11 -55 -10 -62 1 -6 -2 -14 -8 -18 -5 -3 -10 -19 -10 -35 0 -16 -4
-32 -10 -35 -5 -3 -10 -21 -10 -39 0 -35 -15 -56 -40 -56 -29 0 -40 -43 -31
-118 5 -38 15 -78 22 -90 12 -19 79 -52 107 -52 6 0 39 27 73 61 80 78 139
119 181 128 26 5 34 12 36 34 2 18 -1 27 -11 27 -8 0 -20 7 -28 16 -10 12 -23
14 -55 9 -48 -7 -65 7 -40 34 9 10 16 25 16 34 0 10 4 25 9 35 5 9 14 35 20
57 13 41 26 76 42 107 5 10 9 25 9 33 0 9 7 18 15 22 9 3 15 13 14 22 -2 17 6
44 22 73 5 10 9 24 9 32 0 7 6 19 14 25 8 7 17 28 21 49 4 20 10 39 14 42 14
10 41 60 41 75 0 8 3 15 8 15 4 0 13 16 20 35 6 19 18 51 24 70 7 19 16 35 20
35 5 0 8 5 8 11 0 6 9 18 19 27 10 10 36 55 56 102 78 180 81 185 118 167 15
-6 27 -15 27 -19 0 -4 21 -17 48 -30 26 -13 49 -26 50 -30 2 -5 9 -8 15 -8 10
0 124 -89 149 -117 5 -4 39 -41 78 -80 45 -47 67 -78 64 -88 -4 -9 -1 -15 7
-15 17 -1 68 -67 104 -135 14 -27 30 -54 35 -59 5 -5 6 -15 3 -22 -3 -8 2 -16
10 -20 9 -3 13 -12 10 -20 -3 -7 2 -16 10 -20 9 -3 13 -12 10 -20 -3 -8 -1
-14 5 -14 13 0 42 -73 42 -105 0 -13 5 -27 10 -30 6 -3 10 -21 10 -39 0 -17 4
-36 9 -41 10 -12 20 -71 27 -170 3 -38 10 -74 15 -80 12 -12 12 -125 -1 -125
-6 0 -10 -36 -10 -89 0 -50 -4 -92 -9 -95 -5 -3 -11 -29 -15 -58 -10 -91 -18
-128 -26 -128 -4 0 -11 -15 -14 -34 -4 -19 -15 -45 -26 -59 -11 -13 -16 -28
-12 -31 4 -4 -1 -12 -10 -17 -9 -5 -19 -23 -23 -40 -8 -34 -83 -169 -133 -238
-18 -25 -54 -63 -80 -86 -27 -22 -68 -59 -93 -82 -94 -88 -239 -188 -307 -211
-18 -6 -46 -20 -61 -32 -16 -11 -36 -20 -45 -20 -16 0 -24 -3 -85 -34 -19 -9
-64 -20 -100 -23 -36 -3 -72 -11 -80 -17 -19 -15 -361 -14 -431 1 -30 7 -82
16 -115 21 -57 9 -110 25 -147 43 -10 5 -25 9 -33 9 -8 0 -23 4 -33 9 -9 5
-24 12 -32 15 -8 4 -33 17 -55 29 -22 13 -62 36 -90 51 -27 15 -68 41 -91 57
-24 16 -46 29 -51 29 -13 0 -186 161 -238 221 -52 59 -145 193 -145 207 0 5
-11 19 -25 32 -14 13 -25 30 -25 38 0 7 -17 48 -39 90 -21 43 -44 95 -50 117
-7 22 -16 49 -21 60 -4 11 -12 38 -18 60 -6 22 -16 60 -23 85 -11 41 -20 108
-22 170 -3 70 15 242 28 280 8 23 14 55 13 70 -1 16 3 34 9 42 5 7 13 32 17
55 3 23 12 54 20 70 17 33 49 104 68 151 7 17 16 32 20 32 5 0 8 5 8 11 0 6
10 25 23 42 12 18 28 41 35 52 7 11 22 34 33 52 11 17 27 34 36 37 9 4 13 9
10 12 -5 5 10 27 39 58 6 6 16 21 22 32 6 12 34 36 61 55 28 19 51 39 51 44 0
13 126 100 163 112 9 3 17 9 17 13 0 4 30 22 68 40 37 17 75 36 84 41 10 5 27
9 37 9 11 0 22 4 26 9 7 13 64 41 82 41 7 0 21 4 31 9 33 17 89 31 123 31 19
0 41 5 49 10 20 14 381 6 440 -9z m8358 -127 l-43 -34 -1041 0 c-859 0 -1044
2 -1053 13 -6 8 -7 17 -3 21 4 4 1 6 -7 4 -7 -1 -16 3 -18 10 -3 8 5 11 29 10
18 -1 44 2 57 6 16 6 21 5 17 -3 -4 -6 -16 -11 -27 -11 -10 0 -19 -4 -19 -9 0
-10 39 -3 55 10 13 10 138 14 153 5 6 -4 21 -2 33 5 15 8 19 8 15 0 -4 -6 -3
-11 3 -11 5 0 12 3 14 8 3 4 47 6 99 4 98 -4 331 -3 458 1 41 2 89 0 106 -4
17 -3 39 -2 48 3 10 6 16 5 16 -1 0 -6 6 -8 13 -6 30 10 102 13 119 4 10 -5
18 -6 18 -2 0 5 190 10 423 12 232 1 423 4 424 4 1 1 36 1 78 -1 l76 -4 -43
-34z m-4314 -36 c-3 -5 2 -8 10 -8 9 0 16 -8 16 -18 0 -10 9 -28 20 -40 11
-12 20 -26 20 -32 0 -5 4 -10 8 -10 4 0 14 -16 21 -35 7 -19 16 -35 21 -35 4
0 30 -37 56 -82 27 -46 54 -89 61 -96 7 -7 13 -17 13 -22 0 -5 6 -15 13 -22
13 -15 33 -47 55 -90 7 -16 18 -28 24 -28 6 0 9 -3 5 -6 -3 -3 5 -18 19 -32
13 -15 24 -30 24 -33 0 -13 90 -156 110 -174 11 -10 20 -23 20 -29 0 -6 9 -22
20 -36 11 -14 20 -27 20 -30 0 -3 -236 -7 -525 -9 l-525 -3 0 34 c0 25 -9 43
-32 67 -24 24 -28 35 -20 43 7 7 12 22 12 35 0 13 4 31 9 41 5 9 13 28 18 42
20 49 38 85 51 98 6 7 12 20 12 28 0 8 5 14 10 14 6 0 10 8 10 18 0 10 3 22 8
26 4 4 7 11 8 14 2 16 24 60 46 88 109 147 172 216 273 303 61 52 71 57 81 42
7 -8 10 -19 8 -23z m-1520 -103 c-3 -7 -1 -16 5 -20 6 -3 14 1 17 9 5 12 18 7
66 -27 33 -23 73 -60 90 -82 16 -22 46 -53 67 -70 21 -16 51 -48 67 -70 28
-38 35 -59 49 -155 4 -25 12 -50 19 -55 24 -22 38 -57 27 -68 -6 -6 -11 -25
-11 -43 0 -17 -6 -37 -14 -43 -8 -6 -16 -26 -19 -44 -3 -18 -11 -54 -18 -81
l-14 -50 -60 2 c-37 2 -70 -3 -87 -12 -27 -14 -29 -14 -54 20 -15 19 -24 37
-21 41 4 3 1 15 -5 27 -10 19 -29 85 -45 156 -3 14 -11 32 -18 40 -16 19 -25
83 -31 223 -3 59 -9 107 -15 107 -5 0 -9 9 -9 20 0 12 -9 40 -20 62 -11 23
-20 46 -20 51 0 6 -6 15 -13 21 -8 6 -26 32 -40 57 l-26 46 69 -25 c45 -16 67
-28 64 -37z m5451 -137 c8 -8 -215 -167 -415 -294 l-193 -124 -404 0 c-314 0
-404 3 -407 13 -2 6 -9 32 -16 57 -6 25 -16 53 -21 62 -5 10 -9 22 -9 26 0 12
100 32 174 34 34 1 3 5 -69 8 l-130 6 165 3 c91 1 183 6 205 11 26 5 -30 8
-162 7 -227 -2 -206 -9 -235 77 -7 21 -19 41 -25 43 -7 3 -13 14 -13 24 0 10
-4 19 -10 19 -5 0 -10 8 -10 18 0 16 44 17 785 16 432 -1 788 -3 790 -6z
m-2756 -611 c23 -11 63 -66 93 -127 7 -14 17 -28 22 -31 18 -13 -3 -90 -39
-144 -34 -52 -96 -105 -121 -105 -6 0 -18 -10 -26 -22 l-15 -22 -33 20 c-34
20 -53 47 -28 42 7 -2 13 4 13 13 0 9 5 23 11 30 11 14 27 54 30 74 0 6 4 18
9 28 4 9 4 29 -1 45 -4 15 -8 36 -9 47 -4 36 -33 89 -65 120 l-32 30 34 6 c58
11 132 9 157 -4z m-635 -135 c-8 -19 -14 -36 -14 -37 0 -2 -19 -5 -42 -8 -47
-6 -106 -19 -153 -35 -42 -14 -201 -47 -355 -72 -41 -6 -88 -18 -105 -25 -16
-8 -59 -19 -95 -25 -99 -18 -161 -31 -208 -46 -42 -13 -43 -13 -54 14 -35 86
-41 95 -79 111 -21 9 -39 23 -39 31 0 8 17 35 38 59 l38 44 424 8 c234 5 434
10 445 12 11 1 64 2 117 2 l96 1 -14 -34z m98 -362 c-3 -33 0 -44 20 -59 13
-11 37 -38 53 -61 25 -35 28 -49 26 -105 -2 -59 0 -65 25 -81 26 -18 26 -18 5
-26 -21 -7 -88 -21 -196 -38 -27 -5 -79 -13 -115 -19 -36 -6 -96 -16 -135 -21
-38 -6 -99 -15 -135 -20 -104 -16 -205 -27 -355 -40 -83 -7 -151 -18 -168 -26
-28 -16 -47 -12 -47 10 0 18 -24 66 -32 66 -5 0 -8 7 -8 17 0 9 -11 31 -25 49
-14 18 -25 39 -25 48 0 8 -4 18 -10 21 -5 3 -10 16 -10 29 0 12 -5 27 -11 33
-9 9 -6 13 12 17 13 2 49 9 79 15 30 6 69 13 85 16 17 4 44 9 60 12 17 3 35
10 42 15 7 5 45 16 85 24 156 30 184 36 218 44 19 5 67 14 105 21 39 6 79 15
90 19 43 18 168 46 280 65 44 7 82 13 85 14 3 0 4 -17 2 -39z m-1632 -333 c0
-20 -81 -97 -101 -97 -10 0 -21 -4 -24 -10 -11 -17 -85 -12 -92 6 -9 25 10 68
32 72 11 2 27 6 35 10 15 6 114 28 138 31 6 0 12 -5 12 -12z m226 -124 c3 -10
17 -39 30 -64 13 -26 24 -49 24 -51 0 -3 -51 -8 -112 -11 -62 -4 -124 -9 -138
-12 -14 -4 -2 5 25 18 49 25 157 121 147 132 -3 3 0 5 7 5 6 0 14 -8 17 -17z"/>
<path d="M17817 5543 c-3 -2 -39 -4 -81 -4 -42 0 -76 -4 -76 -10 0 -10 12 -12
47 -10 11 1 24 -3 28 -8 3 -6 13 -11 21 -11 8 0 12 5 9 10 -8 13 11 13 36 0
13 -7 19 -7 19 0 0 13 70 13 104 0 14 -5 26 -6 26 -2 0 11 123 11 130 1 3 -4
23 -4 45 1 25 6 41 6 43 -1 2 -5 9 -6 15 -2 18 11 369 11 394 0 16 -7 26 -6
37 5 13 13 -3 16 -137 22 -184 9 -654 16 -660 9z"/>
<path d="M16733 5475 c5 -14 1047 -19 1047 -5 0 9 -49 16 -75 10 -5 -1 -95 -1
-200 -1 -104 1 -322 3 -483 4 -191 1 -291 -1 -289 -8z"/>
<path d="M16130 3620 c-155 -68 -602 -236 -810 -304 l-206 -66 -19 -43 c-25
-53 -65 -76 -156 -88 -58 -8 -75 -8 -93 5 -21 13 -32 12 -117 -10 -51 -13
-110 -24 -131 -24 -20 0 -129 -18 -240 -41 -112 -22 -279 -53 -371 -68 -92
-16 -171 -32 -175 -36 -11 -11 56 -64 246 -192 255 -173 268 -180 429 -213
238 -49 370 -49 673 -1 111 18 141 28 265 85 77 35 167 80 201 100 153 92 281
233 379 419 26 50 55 103 65 117 9 14 23 41 30 60 7 19 30 69 51 110 32 66 79
196 79 221 0 13 -6 11 -100 -31z"/>
<path d="M8480 3568 c1 -76 34 -168 129 -355 135 -265 231 -384 432 -531 31
-22 87 -68 125 -101 87 -78 185 -127 289 -145 237 -43 603 -46 746 -8 108 29
305 109 369 150 30 19 83 60 116 91 34 31 93 85 132 120 73 66 103 114 85 132
-5 5 -83 21 -171 34 -315 47 -665 116 -787 154 -33 11 -184 54 -335 97 -363
102 -731 227 -1049 358 -78 32 -81 32 -81 4z"/>
<path d="M9682 9443 l47 -48 -36 -47 c-48 -65 -54 -114 -18 -156 31 -37 161
-102 203 -102 15 0 66 15 113 34 198 80 196 80 528 71 350 -8 374 -8 426 -2
22 3 46 5 53 6 16 1 16 21 -1 21 -8 0 -12 11 -11 30 1 16 -2 27 -7 24 -5 -3
-7 -10 -4 -15 4 -5 -1 -9 -10 -9 -11 0 -15 5 -11 15 3 9 0 15 -9 15 -19 0 -19
13 5 115 11 47 20 88 20 90 0 3 -300 5 -667 5 l-667 0 46 -47z"/>
<path d="M13116 8166 c-14 -29 -26 -56 -26 -59 0 -8 420 -8 432 -1 5 4 -1 11
-14 18 -23 12 -138 13 -157 2 -6 -4 -22 1 -36 10 -14 9 -34 14 -46 11 -28 -8
-49 2 -49 22 0 26 -14 40 -47 45 -29 6 -32 3 -57 -48z"/>
<path d="M18759 8186 c-2 -2 -92 -7 -199 -10 -107 -4 -229 -9 -270 -11 -196
-12 -361 -16 -660 -15 -644 1 -750 1 -1094 -4 -224 -3 -353 -9 -360 -16 -5 -5
-19 -10 -30 -11 -21 0 -21 0 -1 -9 29 -13 1392 -12 1415 0 13 7 439 10 1247
10 859 0 1224 3 1217 10 -6 6 -22 11 -35 11 -13 1 -64 5 -114 10 -155 16 -268
20 -687 23 -224 2 -411 7 -416 10 -5 3 -11 4 -13 2z"/>
<path d="M2365 8033 c4 -10 18 -46 31 -80 47 -125 331 -667 448 -856 115 -187
224 -356 269 -420 24 -34 89 -129 145 -212 157 -234 349 -491 547 -730 50 -60
102 -126 116 -145 13 -19 58 -73 100 -120 41 -47 108 -123 148 -170 40 -47
190 -203 333 -348 309 -311 501 -485 854 -772 78 -63 173 -141 211 -172 181
-149 965 -690 1178 -813 180 -104 574 -311 740 -388 94 -44 175 -83 180 -87
12 -10 261 -120 271 -120 8 0 200 -82 280 -120 34 -16 90 -38 125 -50 35 -12
78 -27 94 -35 35 -16 311 -108 370 -124 l40 -10 -50 42 c-27 23 -124 112 -214
197 -248 234 -357 393 -431 629 -79 255 -139 517 -140 611 0 30 -4 60 -8 66
-4 6 -70 44 -147 84 -476 249 -863 476 -1101 647 -611 436 -844 627 -1289
1053 -598 574 -1179 1303 -1577 1980 -63 107 -143 247 -177 310 -34 63 -68
126 -76 140 l-14 25 -631 3 c-600 2 -632 1 -625 -15z"/>
<path d="M13288 7972 c-43 -2 -78 -6 -78 -10 0 -4 443 -8 985 -8 542 0 985 3
985 8 0 4 -154 8 -342 8 -189 0 -597 1 -908 3 -311 1 -600 1 -642 -1z"/>
<path d="M13135 2874 c-77 -7 -248 -17 -380 -23 -132 -7 -252 -13 -267 -16
-15 -2 -54 -22 -86 -45 -77 -52 -119 -69 -192 -77 -56 -5 -61 -4 -80 20 -32
41 -98 67 -167 67 -91 0 -212 19 -252 40 -27 13 -66 19 -150 21 l-114 4 -43
-70 c-57 -94 -343 -374 -533 -524 -125 -97 -488 -254 -714 -306 -42 -11 -74
-22 -70 -26 14 -14 362 -76 858 -154 116 -19 314 -41 490 -55 210 -18 1205
-25 1474 -11 255 13 531 36 606 51 59 11 257 42 440 69 72 11 186 31 255 44
69 14 161 32 205 41 88 17 450 98 530 119 50 14 49 14 -100 21 -189 9 -274 23
-505 86 -158 43 -207 61 -338 126 -117 59 -169 91 -221 138 -37 34 -131 119
-209 189 -79 71 -170 161 -204 200 -34 40 -69 74 -77 77 -9 3 -79 0 -156 -6z"/>
</g>
</svg>
